<svg version="1.1" id="svg1" width="2000" height="1999.9999" viewBox="0 0 2000 1999.9999" sodipodi:docname="page2_3873839414165507445.pdf" xmlns:inkscape="http://www.inkscape.org/namespaces/inkscape" xmlns:sodipodi="http://sodipodi.sourceforge.net/DTD/sodipodi-0.dtd" xmlns="http://www.w3.org/2000/svg" xmlns:svg="http://www.w3.org/2000/svg">
  <defs id="defs1"></defs>
  <sodipodi:namedview id="namedview1" pagecolor="#ffffff" bordercolor="#000000" borderopacity="0.25" inkscape:showpageshadow="2" inkscape:pageopacity="0.0" inkscape:pagecheckerboard="0" inkscape:deskcolor="#d1d1d1">
    <inkscape:page x="0" y="0" inkscape:label="1" id="page1" width="2000" height="1999.9999" margin="0" bleed="0"></inkscape:page>
  </sodipodi:namedview>
  <g id="g1" inkscape:groupmode="layer" inkscape:label="1">
    <g id="g2"></g>
    <g id="g3">
      
    </g>
    <g id="g4"></g>
    <g id="g5">
      
    </g>
    <g id="g6">
      <path id="path6" d="M 35.765635,-496.64057 H 445.75003 c 4.125,0 7.67578,1.49219 10.65625,4.46875 2.97656,2.98047 4.46875,6.53125 4.46875,10.65625 v 62.59376 c 0,4.13671 -1.49219,7.69531 -4.46875,10.67187 -2.98047,2.98047 -6.53125,4.46875 -10.65625,4.46875 -4.13672,0 -7.69532,-1.48828 -10.67188,-4.46875 -2.98047,-2.97656 -4.46875,-6.53516 -4.46875,-10.67187 v -47.45313 H 218.06252 v 256.57813 h 99.04688 v -48.84375 c 0,-4.125 1.48828,-7.67578 4.46875,-10.65625 2.97656,-2.98828 6.53515,-4.48437 10.67187,-4.48437 4.125,0 7.67578,1.49609 10.65625,4.48437 2.97657,2.98047 4.46875,6.53125 4.46875,10.65625 v 126.56251 c 0,4.13672 -1.49218,7.69531 -4.46875,10.67187 -2.98047,2.98047 -6.53125,4.46875 -10.65625,4.46875 -4.13672,0 -7.69531,-1.48828 -10.67187,-4.46875 -2.98047,-2.97656 -4.46875,-6.53515 -4.46875,-10.67187 v -47.45313 h -99.04688 v 149.265631 h 50.89062 c 4.13282,0 7.69141,1.492188 10.67188,4.46875 2.97656,2.980469 4.46875,6.531251 4.46875,10.656251 0,4.136719 -1.49219,7.6953127 -4.46875,10.6718753 -2.98047,2.9804689 -6.53906,4.468750220836 -10.67188,4.468750220836 H 38.515635 c -4.125,0 -7.679688,-1.488281320836 -10.65625,-4.468750220836 -2.980469,-2.9765626 -4.468751,-6.5351563 -4.468751,-10.6718753 0,-4.125 1.488282,-7.675782 4.468751,-10.656251 2.976562,-2.976562 6.53125,-4.46875 10.65625,-4.46875 H 85.984387 V -466.37494 H 35.765635 c -4.125,0 -7.679688,-1.48828 -10.656251,-4.46875 -2.980468,-2.98828 -4.46875,-6.54688 -4.46875,-10.67188 0,-4.125 1.488282,-7.67578 4.46875,-10.65625 2.976563,-2.97656 6.531251,-4.46875 10.656251,-4.46875 z m 152.031255,30.26563 h -71.54688 v 256.57813 h 71.54688 z m 0,286.84376 h -71.54688 v 149.265631 h 71.54688 z m 725.00394,12.375 h 136.89067 c 10.0937,0 15.1406,5.04688 15.1406,15.14063 0,4.125 -1.3828,7.67968 -4.1406,10.65625 -2.75,2.98047 -6.418,4.46875 -11,4.46875 h -50.90629 v 121.750002 c 0,4.136719 -1.375,7.6953127 -4.125,10.6718753 -2.75,2.9804689 -6.41797,4.468750220836 -11,4.468750220836 -4.13672,0 -7.69532,-1.488281320836 -10.67188,-4.468750220836 -2.98047,-2.9765626 -4.46875,-6.5351563 -4.46875,-10.6718753 v -45.390627 c -22.46875,19.26172 -47.57813,34.16797 -75.32813,44.718752 C 865.44926,-5.2694539 836.44536,7.7520836e-5 806.17582,7.7520836e-5 c -16.5,0 -32.77734,-1.718750120836 -48.82812,-5.156250220836 -16.05469,-3.4375001 -31.87501,-8.1406253 -47.46876,-14.1093753 -29.34375,-12.375001 -55.48437,-30.257814 -78.42187,-53.656253 -23.38672,-22.925782 -41.26563,-49.062499 -53.64063,-78.406249 -5.96875,-15.59375 -10.67188,-31.41407 -14.10938,-47.46876 -3.4375,-16.05078 -5.15625,-32.33203 -5.15625,-48.84375 0,-16.96875 1.71875,-33.47266 5.15625,-49.51562 3.4375,-16.05079 8.14063,-31.87501 14.10938,-47.46876 12.375,-29.8125 30.25391,-55.95312 53.64063,-78.42188 22.9375,-22.92578 49.07812,-40.8125 78.42187,-53.65625 15.13282,-6.41406 30.72657,-11.22656 46.78126,-14.4375 16.05078,-3.20703 32.55469,-4.8125 49.51562,-4.8125 30.26954,0 59.27344,5.27735 87.01563,15.82813 27.75,10.54297 52.85938,25.44531 75.32813,44.70312 v -46.09375 c 0,-4.58203 1.48828,-8.25 4.46875,-11 2.97656,-2.75 6.53516,-4.125 10.67188,-4.125 10.08203,0 15.125,5.04297 15.125,15.125 v 136.89063 c 0,4.125 -1.375,7.6836 -4.125,10.67188 -2.75,2.98047 -6.41797,4.46875 -11,4.46875 -4.13672,0 -7.69532,-1.48828 -10.67188,-4.46875 -2.98047,-2.98828 -4.46875,-6.54688 -4.46875,-10.67188 v -48.15625 c -20.63672,-22.92578 -45.0586,-40.80469 -73.26563,-53.64063 -28.19922,-12.84375 -57.89063,-19.26562 -89.07813,-19.26562 h -0.6875 c -18.80469,0 -36,4.82031 -51.59375,14.45312 -15.58594,9.625 -27.96484,22.35157 -37.14063,38.17188 -9.16796,15.8125 -13.75,33.35156 -13.75,52.60938 v 304.046885 c 32.10157,17.429688 66.49219,26.140626 103.17188,26.140626 31.1875,0 60.87891,-6.300781 89.07813,-18.906251 28.20703,-12.613281 52.62891,-30.617188 73.26563,-54.01563 v -33.70312 h -55.71875 c -4.125,0 -7.67969,-1.48828 -10.65625,-4.46875 -2.98047,-2.97657 -4.46875,-6.53125 -4.46875,-10.65625 0,-4.59375 1.48828,-8.26563 4.46875,-11.01563 2.97656,-2.75 6.53125,-4.125 10.65625,-4.125 z M 672.05082,-76.359301 V -360.45306 c 0,-27.05078 7.10937,-51.58204 21.32812,-73.59376 -14.21875,8.71094 -27.75,19.48438 -40.59375,32.32813 -42.64844,42.64844 -63.96875,94.00782 -63.96875,154.07813 0,28.89844 5.5,56.64844 16.5,83.25001 11.00781,26.59375 26.83203,49.98047 47.46875,70.156249 3.20703,3.210937 6.41406,6.304687 9.625,9.28125 3.21875,2.980469 6.42969,5.84375 9.64063,8.59375 z M 1121.2188,-497.32807 h 443 c 4.125,0 7.6758,1.49219 10.6563,4.46875 2.9765,2.98047 4.4687,6.53125 4.4687,10.65625 v 62.59376 c 0,4.13671 -1.4922,7.69531 -4.4687,10.67187 -2.9805,2.98047 -6.5313,4.46875 -10.6563,4.46875 -4.125,0 -7.6836,-1.48828 -10.6719,-4.46875 -2.9804,-2.97656 -4.4687,-6.53516 -4.4687,-10.67187 v -47.45313 h -143.0781 v 436.796891 h 48.8437 c 4.125,0 7.6758,1.492188 10.6563,4.46875 2.9883,2.980469 4.4843,6.531251 4.4843,10.656251 0,4.136719 -1.496,7.6953127 -4.4843,10.6718753 -2.9805,2.9804689 -6.5313,4.468750220836 -10.6563,4.468750220836 h -231.8125 c -4.125,0 -7.6836,-1.488281320836 -10.6719,-4.468750220836 -2.9804,-2.9765626 -4.4687,-6.5351563 -4.4687,-10.6718753 0,-4.125 1.4883,-7.675782 4.4687,-10.656251 2.9883,-2.976562 6.5469,-4.46875 10.6719,-4.46875 h 51.5938 V -467.06244 h -138.2657 v 41.95312 c 0,4.125 -1.4922,7.6836 -4.4687,10.67188 -2.9805,2.98047 -6.5391,4.46875 -10.6719,4.46875 -4.125,0 -7.6797,-1.48828 -10.6562,-4.46875 -2.9805,-2.98828 -4.4688,-6.54688 -4.4688,-10.67188 v -57.09375 c 0,-4.125 1.4883,-7.67578 4.4688,-10.65625 2.9765,-2.97656 6.5312,-4.46875 10.6562,-4.46875 z m 254.5156,30.26563 h -70.8437 v 436.796891 h 70.8437 z m 0,0" style="fill:#ffffff;fill-opacity:1;fill-rule:nonzero;stroke:none" aria-label="FGT" transform="translate(202.74999,1231.0599)" data-index="2"></path>
    </g>
    <g id="g7">
      <path id="path7" d="M 35.765635,-496.64057 H 445.75003 c 4.125,0 7.67578,1.49219 10.65625,4.46875 2.97656,2.98047 4.46875,6.53125 4.46875,10.65625 v 62.59376 c 0,4.13671 -1.49219,7.69531 -4.46875,10.67187 -2.98047,2.98047 -6.53125,4.46875 -10.65625,4.46875 -4.13672,0 -7.69532,-1.48828 -10.67188,-4.46875 -2.98047,-2.97656 -4.46875,-6.53516 -4.46875,-10.67187 v -47.45313 H 218.06252 v 256.57813 h 99.04688 v -48.84375 c 0,-4.125 1.48828,-7.67578 4.46875,-10.65625 2.97656,-2.98828 6.53515,-4.48437 10.67187,-4.48437 4.125,0 7.67578,1.49609 10.65625,4.48437 2.97657,2.98047 4.46875,6.53125 4.46875,10.65625 v 126.56251 c 0,4.13672 -1.49218,7.69531 -4.46875,10.67187 -2.98047,2.98047 -6.53125,4.46875 -10.65625,4.46875 -4.13672,0 -7.69531,-1.48828 -10.67187,-4.46875 -2.98047,-2.97656 -4.46875,-6.53515 -4.46875,-10.67187 v -47.45313 h -99.04688 v 149.265631 h 50.89062 c 4.13282,0 7.69141,1.492188 10.67188,4.46875 2.97656,2.980469 4.46875,6.531251 4.46875,10.656251 0,4.136719 -1.49219,7.6953127 -4.46875,10.6718753 -2.98047,2.9804689 -6.53906,4.468750220836 -10.67188,4.468750220836 H 38.515635 c -4.125,0 -7.679688,-1.488281320836 -10.656251,-4.468750220836 -2.980468,-2.9765626 -4.46875,-6.5351563 -4.46875,-10.6718753 0,-4.125 1.488282,-7.675782 4.46875,-10.656251 2.976563,-2.976562 6.531251,-4.46875 10.656251,-4.46875 H 85.984387 V -466.37494 H 35.765635 c -4.125,0 -7.679688,-1.48828 -10.656251,-4.46875 -2.980468,-2.98828 -4.46875,-6.54688 -4.46875,-10.67188 0,-4.125 1.488282,-7.67578 4.46875,-10.65625 2.976563,-2.97656 6.531251,-4.46875 10.656251,-4.46875 z m 152.031255,30.26563 h -71.54688 v 256.57813 h 71.54688 z m 0,286.84376 h -71.54688 v 149.265631 h 71.54688 z m 725.00394,12.375 h 136.89067 c 10.0937,0 15.1406,5.04688 15.1406,15.14063 0,4.125 -1.3828,7.67968 -4.1406,10.65625 -2.75,2.98047 -6.418,4.46875 -11,4.46875 h -50.90629 v 121.750002 c 0,4.136719 -1.375,7.6953127 -4.125,10.6718753 -2.75,2.9804689 -6.41797,4.468750220836 -11,4.468750220836 -4.13672,0 -7.69532,-1.488281320836 -10.67188,-4.468750220836 -2.98047,-2.9765626 -4.46875,-6.5351563 -4.46875,-10.6718753 v -45.390627 c -22.46875,19.26172 -47.57813,34.16797 -75.32813,44.718752 C 865.44926,-5.2694539 836.44536,7.7520836e-5 806.17582,7.7520836e-5 c -16.5,0 -32.77734,-1.718750120836 -48.82812,-5.156250220836 -16.05469,-3.4375001 -31.87501,-8.1406253 -47.46876,-14.1093753 -29.34375,-12.375001 -55.48437,-30.257814 -78.42187,-53.656253 -23.38672,-22.925782 -41.26563,-49.062499 -53.64063,-78.406249 -5.96875,-15.59375 -10.67188,-31.41407 -14.10938,-47.46876 -3.4375,-16.05078 -5.15625,-32.33203 -5.15625,-48.84375 0,-16.96875 1.71875,-33.47266 5.15625,-49.51562 3.4375,-16.05079 8.14063,-31.87501 14.10938,-47.46876 12.375,-29.8125 30.25391,-55.95312 53.64063,-78.42188 22.9375,-22.92578 49.07812,-40.8125 78.42187,-53.65625 15.13282,-6.41406 30.72657,-11.22656 46.78126,-14.4375 16.05078,-3.20703 32.55468,-4.8125 49.51562,-4.8125 30.26954,0 59.27344,5.27735 87.01563,15.82813 27.75,10.54297 52.85938,25.44531 75.32813,44.70312 v -46.09375 c 0,-4.58203 1.48828,-8.25 4.46875,-11 2.97656,-2.75 6.53516,-4.125 10.67188,-4.125 10.08203,0 15.125,5.04297 15.125,15.125 v 136.89063 c 0,4.125 -1.375,7.6836 -4.125,10.67188 -2.75,2.98047 -6.41797,4.46875 -11,4.46875 -4.13672,0 -7.69532,-1.48828 -10.67188,-4.46875 -2.98047,-2.98828 -4.46875,-6.54688 -4.46875,-10.67188 v -48.15625 c -20.63672,-22.92578 -45.0586,-40.80469 -73.26563,-53.64063 -28.19922,-12.84375 -57.89063,-19.26562 -89.07813,-19.26562 h -0.6875 c -18.80469,0 -36,4.82031 -51.59375,14.45312 -15.58594,9.625 -27.96484,22.35157 -37.14063,38.17188 -9.16796,15.8125 -13.75,33.35156 -13.75,52.60938 v 304.046885 c 32.10157,17.429688 66.49219,26.140626 103.17188,26.140626 31.1875,0 60.87891,-6.300781 89.07813,-18.906251 28.20703,-12.613281 52.62891,-30.617188 73.26563,-54.01563 v -33.70312 h -55.71875 c -4.125,0 -7.67969,-1.48828 -10.65625,-4.46875 -2.98047,-2.97657 -4.46875,-6.53125 -4.46875,-10.65625 0,-4.59375 1.48828,-8.26563 4.46875,-11.01563 2.97656,-2.75 6.53125,-4.125 10.65625,-4.125 z M 672.05082,-76.359301 V -360.45306 c 0,-27.05078 7.10937,-51.58204 21.32812,-73.59376 -14.21875,8.71094 -27.75,19.48438 -40.59375,32.32813 -42.64844,42.64844 -63.96875,94.00782 -63.96875,154.07813 0,28.89844 5.5,56.64844 16.5,83.25001 11.00781,26.59375 26.83203,49.98047 47.46875,70.156249 3.20703,3.210937 6.41406,6.304687 9.625,9.28125 3.21875,2.980469 6.42969,5.84375 9.64063,8.59375 z M 1121.2188,-497.32807 h 443 c 4.125,0 7.6758,1.49219 10.6563,4.46875 2.9765,2.98047 4.4687,6.53125 4.4687,10.65625 v 62.59376 c 0,4.13671 -1.4922,7.69531 -4.4687,10.67187 -2.9805,2.98047 -6.5313,4.46875 -10.6563,4.46875 -4.125,0 -7.6836,-1.48828 -10.6719,-4.46875 -2.9804,-2.97656 -4.4687,-6.53516 -4.4687,-10.67187 v -47.45313 h -143.0781 v 436.796891 h 48.8437 c 4.125,0 7.6758,1.492188 10.6563,4.46875 2.9883,2.980469 4.4843,6.531251 4.4843,10.656251 0,4.136719 -1.496,7.6953127 -4.4843,10.6718753 -2.9805,2.9804689 -6.5313,4.468750220836 -10.6563,4.468750220836 h -231.8125 c -4.125,0 -7.6836,-1.488281320836 -10.6719,-4.468750220836 -2.9804,-2.9765626 -4.4687,-6.5351563 -4.4687,-10.6718753 0,-4.125 1.4883,-7.675782 4.4687,-10.656251 2.9883,-2.976562 6.5469,-4.46875 10.6719,-4.46875 h 51.5938 V -467.06244 h -138.2657 v 41.95312 c 0,4.125 -1.4922,7.6836 -4.4687,10.67188 -2.9805,2.98047 -6.5391,4.46875 -10.6719,4.46875 -4.125,0 -7.6797,-1.48828 -10.6562,-4.46875 -2.9805,-2.98828 -4.4688,-6.54688 -4.4688,-10.67188 v -57.09375 c 0,-4.125 1.4883,-7.67578 4.4688,-10.65625 2.9765,-2.97656 6.5312,-4.46875 10.6562,-4.46875 z m 254.5156,30.26563 h -70.8437 v 436.796891 h 70.8437 z m 0,0" style="fill:#ffffff;fill-opacity:1;fill-rule:nonzero;stroke:none" aria-label="FGT" transform="translate(199.99999,1231.0599)" data-index="3"></path>
    </g>
    <g id="g8">
      <path id="path8" d="M 35.765635,-496.64057 H 445.75003 c 4.125,0 7.67578,1.49219 10.65625,4.46875 2.97656,2.98047 4.46875,6.53125 4.46875,10.65625 v 62.59376 c 0,4.13671 -1.49219,7.69531 -4.46875,10.67187 -2.98047,2.98047 -6.53125,4.46875 -10.65625,4.46875 -4.13672,0 -7.69532,-1.48828 -10.67188,-4.46875 -2.98047,-2.97656 -4.46875,-6.53516 -4.46875,-10.67187 v -47.45313 H 218.06252 v 256.57813 h 99.04688 v -48.84375 c 0,-4.125 1.48828,-7.67578 4.46875,-10.65625 2.97656,-2.98828 6.53515,-4.48437 10.67187,-4.48437 4.125,0 7.67578,1.49609 10.65625,4.48437 2.97657,2.98047 4.46875,6.53125 4.46875,10.65625 v 126.56251 c 0,4.13672 -1.49218,7.69531 -4.46875,10.67187 -2.98047,2.98047 -6.53125,4.46875 -10.65625,4.46875 -4.13672,0 -7.69531,-1.48828 -10.67187,-4.46875 -2.98047,-2.97656 -4.46875,-6.53515 -4.46875,-10.67187 v -47.45313 h -99.04688 v 149.265631 h 50.89062 c 4.13282,0 7.69141,1.492188 10.67188,4.46875 2.97656,2.980469 4.46875,6.531251 4.46875,10.656251 0,4.136719 -1.49219,7.6953127 -4.46875,10.6718753 -2.98047,2.9804689 -6.53906,4.468750220836 -10.67188,4.468750220836 H 38.515635 c -4.125,0 -7.679688,-1.488281320836 -10.656251,-4.468750220836 -2.980468,-2.9765626 -4.46875,-6.5351563 -4.46875,-10.6718753 0,-4.125 1.488282,-7.675782 4.46875,-10.656251 2.976563,-2.976562 6.531251,-4.46875 10.656251,-4.46875 H 85.984387 V -466.37494 H 35.765635 c -4.125,0 -7.679688,-1.48828 -10.656251,-4.46875 -2.980469,-2.98828 -4.46875,-6.54688 -4.46875,-10.67188 0,-4.125 1.488281,-7.67578 4.46875,-10.65625 2.976563,-2.97656 6.531251,-4.46875 10.656251,-4.46875 z m 152.031255,30.26563 h -71.54688 v 256.57813 h 71.54688 z m 0,286.84376 h -71.54688 v 149.265631 h 71.54688 z m 725.00394,12.375 h 136.89067 c 10.0937,0 15.1406,5.04688 15.1406,15.14063 0,4.125 -1.3828,7.67968 -4.1406,10.65625 -2.75,2.98047 -6.418,4.46875 -11,4.46875 h -50.90629 v 121.750002 c 0,4.136719 -1.375,7.6953127 -4.125,10.6718753 -2.75,2.9804689 -6.41797,4.468750220836 -11,4.468750220836 -4.13672,0 -7.69532,-1.488281320836 -10.67188,-4.468750220836 -2.98047,-2.9765626 -4.46875,-6.5351563 -4.46875,-10.6718753 v -45.390627 c -22.46875,19.26172 -47.57813,34.16797 -75.32813,44.718752 C 865.44926,-5.2694539 836.44536,7.7520836e-5 806.17582,7.7520836e-5 c -16.5,0 -32.77734,-1.718750120836 -48.82812,-5.156250220836 -16.05469,-3.4375001 -31.87501,-8.1406253 -47.46876,-14.1093753 -29.34375,-12.375001 -55.48437,-30.257814 -78.42187,-53.656253 -23.38672,-22.925782 -41.26563,-49.062499 -53.64063,-78.406249 -5.96875,-15.59375 -10.67188,-31.41407 -14.10938,-47.46876 -3.4375,-16.05078 -5.15625,-32.33203 -5.15625,-48.84375 0,-16.96875 1.71875,-33.47266 5.15625,-49.51562 3.4375,-16.05079 8.14063,-31.87501 14.10938,-47.46876 12.375,-29.8125 30.25391,-55.95312 53.64063,-78.42188 22.9375,-22.92578 49.07812,-40.8125 78.42187,-53.65625 15.13282,-6.41406 30.72657,-11.22656 46.78126,-14.4375 16.05078,-3.20703 32.55468,-4.8125 49.51562,-4.8125 30.26954,0 59.27344,5.27735 87.01563,15.82813 27.75,10.54297 52.85938,25.44531 75.32813,44.70312 v -46.09375 c 0,-4.58203 1.48828,-8.25 4.46875,-11 2.97656,-2.75 6.53516,-4.125 10.67188,-4.125 10.08203,0 15.125,5.04297 15.125,15.125 v 136.89063 c 0,4.125 -1.375,7.6836 -4.125,10.67188 -2.75,2.98047 -6.41797,4.46875 -11,4.46875 -4.13672,0 -7.69532,-1.48828 -10.67188,-4.46875 -2.98047,-2.98828 -4.46875,-6.54688 -4.46875,-10.67188 v -48.15625 c -20.63672,-22.92578 -45.0586,-40.80469 -73.26563,-53.64063 -28.19922,-12.84375 -57.89063,-19.26562 -89.07813,-19.26562 h -0.6875 c -18.80469,0 -36,4.82031 -51.59375,14.45312 -15.58594,9.625 -27.96484,22.35157 -37.14063,38.17188 -9.16796,15.8125 -13.75,33.35156 -13.75,52.60938 v 304.046885 c 32.10157,17.429688 66.49219,26.140626 103.17188,26.140626 31.1875,0 60.87891,-6.300781 89.07813,-18.906251 28.20703,-12.613281 52.62891,-30.617188 73.26563,-54.01563 v -33.70312 h -55.71875 c -4.125,0 -7.67969,-1.48828 -10.65625,-4.46875 -2.98047,-2.97657 -4.46875,-6.53125 -4.46875,-10.65625 0,-4.59375 1.48828,-8.26563 4.46875,-11.01563 2.97656,-2.75 6.53125,-4.125 10.65625,-4.125 z M 672.05082,-76.359301 V -360.45306 c 0,-27.05078 7.10937,-51.58204 21.32812,-73.59376 -14.21875,8.71094 -27.75,19.48438 -40.59375,32.32813 -42.64844,42.64844 -63.96875,94.00782 -63.96875,154.07813 0,28.89844 5.5,56.64844 16.5,83.25001 11.00781,26.59375 26.83203,49.98047 47.46875,70.156249 3.20703,3.210937 6.41406,6.304687 9.625,9.28125 3.21875,2.980469 6.42969,5.84375 9.64063,8.59375 z M 1121.2188,-497.32807 h 443 c 4.125,0 7.6758,1.49219 10.6563,4.46875 2.9765,2.98047 4.4687,6.53125 4.4687,10.65625 v 62.59376 c 0,4.13671 -1.4922,7.69531 -4.4687,10.67187 -2.9805,2.98047 -6.5313,4.46875 -10.6563,4.46875 -4.125,0 -7.6836,-1.48828 -10.6719,-4.46875 -2.9804,-2.97656 -4.4687,-6.53516 -4.4687,-10.67187 v -47.45313 h -143.0781 v 436.796891 h 48.8437 c 4.125,0 7.6758,1.492188 10.6563,4.46875 2.9883,2.980469 4.4843,6.531251 4.4843,10.656251 0,4.136719 -1.496,7.6953127 -4.4843,10.6718753 -2.9805,2.9804689 -6.5313,4.468750220836 -10.6563,4.468750220836 h -231.8125 c -4.125,0 -7.6836,-1.488281320836 -10.6719,-4.468750220836 -2.9804,-2.9765626 -4.4687,-6.5351563 -4.4687,-10.6718753 0,-4.125 1.4883,-7.675782 4.4687,-10.656251 2.9883,-2.976562 6.5469,-4.46875 10.6719,-4.46875 h 51.5938 V -467.06244 h -138.2657 v 41.95312 c 0,4.125 -1.4922,7.6836 -4.4687,10.67188 -2.9805,2.98047 -6.5391,4.46875 -10.6719,4.46875 -4.125,0 -7.6797,-1.48828 -10.6562,-4.46875 -2.9805,-2.98828 -4.4688,-6.54688 -4.4688,-10.67188 v -57.09375 c 0,-4.125 1.4883,-7.67578 4.4688,-10.65625 2.9765,-2.97656 6.5312,-4.46875 10.6562,-4.46875 z m 254.5156,30.26563 h -70.8437 v 436.796891 h 70.8437 z m 0,0" style="fill:#ffffff;fill-opacity:1;fill-rule:nonzero;stroke:none" aria-label="FGT" transform="translate(197.24999,1231.0599)" data-index="4"></path>
    </g>
    <g id="g9">
      <path id="path9" d="M 35.765635,-496.64057 H 445.75003 c 4.125,0 7.67578,1.49219 10.65625,4.46875 2.97656,2.98047 4.46875,6.53125 4.46875,10.65625 v 62.59376 c 0,4.13671 -1.49219,7.69531 -4.46875,10.67187 -2.98047,2.98047 -6.53125,4.46875 -10.65625,4.46875 -4.13672,0 -7.69532,-1.48828 -10.67188,-4.46875 -2.98047,-2.97656 -4.46875,-6.53516 -4.46875,-10.67187 v -47.45313 H 218.06252 v 256.57813 h 99.04688 v -48.84375 c 0,-4.125 1.48828,-7.67578 4.46875,-10.65625 2.97656,-2.98828 6.53515,-4.48437 10.67187,-4.48437 4.125,0 7.67578,1.49609 10.65625,4.48437 2.97657,2.98047 4.46875,6.53125 4.46875,10.65625 v 126.56251 c 0,4.13672 -1.49218,7.69531 -4.46875,10.67187 -2.98047,2.98047 -6.53125,4.46875 -10.65625,4.46875 -4.13672,0 -7.69531,-1.48828 -10.67187,-4.46875 -2.98047,-2.97656 -4.46875,-6.53515 -4.46875,-10.67187 v -47.45313 h -99.04688 v 149.265631 h 50.89062 c 4.13282,0 7.69141,1.492188 10.67188,4.46875 2.97656,2.980469 4.46875,6.531251 4.46875,10.656251 0,4.136719 -1.49219,7.6953127 -4.46875,10.6718753 -2.98047,2.9804689 -6.53906,4.468750220836 -10.67188,4.468750220836 H 38.515635 c -4.125,0 -7.679688,-1.488281320836 -10.656251,-4.468750220836 -2.980469,-2.9765626 -4.46875,-6.5351563 -4.46875,-10.6718753 0,-4.125 1.488281,-7.675782 4.46875,-10.656251 2.976563,-2.976562 6.531251,-4.46875 10.656251,-4.46875 H 85.984387 V -466.37494 H 35.765635 c -4.125001,0 -7.679688,-1.48828 -10.656251,-4.46875 -2.980469,-2.98828 -4.46875,-6.54688 -4.46875,-10.67188 0,-4.125 1.488281,-7.67578 4.46875,-10.65625 2.976563,-2.97656 6.53125,-4.46875 10.656251,-4.46875 z m 152.031255,30.26563 h -71.54688 v 256.57813 h 71.54688 z m 0,286.84376 h -71.54688 v 149.265631 h 71.54688 z m 725.00394,12.375 h 136.89067 c 10.0937,0 15.1406,5.04688 15.1406,15.14063 0,4.125 -1.3828,7.67968 -4.1406,10.65625 -2.75,2.98047 -6.418,4.46875 -11,4.46875 h -50.90629 v 121.750002 c 0,4.136719 -1.375,7.6953127 -4.125,10.6718753 -2.75,2.9804689 -6.41797,4.468750220836 -11,4.468750220836 -4.13672,0 -7.69532,-1.488281320836 -10.67188,-4.468750220836 -2.98047,-2.9765626 -4.46875,-6.5351563 -4.46875,-10.6718753 v -45.390627 c -22.46875,19.26172 -47.57813,34.16797 -75.32813,44.718752 C 865.44926,-5.2694539 836.44536,7.7520836e-5 806.17582,7.7520836e-5 c -16.5,0 -32.77734,-1.718750120836 -48.82812,-5.156250220836 -16.05469,-3.4375001 -31.87501,-8.1406253 -47.46876,-14.1093753 -29.34375,-12.375001 -55.48437,-30.257814 -78.42187,-53.656253 -23.38672,-22.925782 -41.26563,-49.062499 -53.64063,-78.406249 -5.96875,-15.59375 -10.67188,-31.41407 -14.10938,-47.46876 -3.4375,-16.05078 -5.15625,-32.33203 -5.15625,-48.84375 0,-16.96875 1.71875,-33.47266 5.15625,-49.51562 3.4375,-16.05079 8.14063,-31.87501 14.10938,-47.46876 12.375,-29.8125 30.25391,-55.95312 53.64063,-78.42188 22.9375,-22.92578 49.07812,-40.8125 78.42187,-53.65625 15.13282,-6.41406 30.72657,-11.22656 46.78126,-14.4375 16.05078,-3.20703 32.55468,-4.8125 49.51562,-4.8125 30.26954,0 59.27344,5.27735 87.01563,15.82813 27.75,10.54297 52.85938,25.44531 75.32813,44.70312 v -46.09375 c 0,-4.58203 1.48828,-8.25 4.46875,-11 2.97656,-2.75 6.53516,-4.125 10.67188,-4.125 10.08203,0 15.125,5.04297 15.125,15.125 v 136.89063 c 0,4.125 -1.375,7.6836 -4.125,10.67188 -2.75,2.98047 -6.41797,4.46875 -11,4.46875 -4.13672,0 -7.69532,-1.48828 -10.67188,-4.46875 -2.98047,-2.98828 -4.46875,-6.54688 -4.46875,-10.67188 v -48.15625 c -20.63672,-22.92578 -45.0586,-40.80469 -73.26563,-53.64063 -28.19922,-12.84375 -57.89063,-19.26562 -89.07813,-19.26562 h -0.6875 c -18.80469,0 -36,4.82031 -51.59375,14.45312 -15.58594,9.625 -27.96484,22.35157 -37.14063,38.17188 -9.16796,15.8125 -13.75,33.35156 -13.75,52.60938 v 304.046885 c 32.10157,17.429688 66.49219,26.140626 103.17188,26.140626 31.1875,0 60.87891,-6.300781 89.07813,-18.906251 28.20703,-12.613281 52.62891,-30.617188 73.26563,-54.01563 v -33.70312 h -55.71875 c -4.125,0 -7.67969,-1.48828 -10.65625,-4.46875 -2.98047,-2.97657 -4.46875,-6.53125 -4.46875,-10.65625 0,-4.59375 1.48828,-8.26563 4.46875,-11.01563 2.97656,-2.75 6.53125,-4.125 10.65625,-4.125 z M 672.05082,-76.359301 V -360.45306 c 0,-27.05078 7.10937,-51.58204 21.32812,-73.59376 -14.21875,8.71094 -27.75,19.48438 -40.59375,32.32813 -42.64844,42.64844 -63.96875,94.00782 -63.96875,154.07813 0,28.89844 5.5,56.64844 16.5,83.25001 11.00781,26.59375 26.83203,49.98047 47.46875,70.156249 3.20703,3.210937 6.41406,6.304687 9.625,9.28125 3.21875,2.980469 6.42969,5.84375 9.64063,8.59375 z M 1121.2188,-497.32807 h 443 c 4.125,0 7.6758,1.49219 10.6563,4.46875 2.9765,2.98047 4.4687,6.53125 4.4687,10.65625 v 62.59376 c 0,4.13671 -1.4922,7.69531 -4.4687,10.67187 -2.9805,2.98047 -6.5313,4.46875 -10.6563,4.46875 -4.125,0 -7.6836,-1.48828 -10.6719,-4.46875 -2.9804,-2.97656 -4.4687,-6.53516 -4.4687,-10.67187 v -47.45313 h -143.0781 v 436.796891 h 48.8437 c 4.125,0 7.6758,1.492188 10.6563,4.46875 2.9883,2.980469 4.4843,6.531251 4.4843,10.656251 0,4.136719 -1.496,7.6953127 -4.4843,10.6718753 -2.9805,2.9804689 -6.5313,4.468750220836 -10.6563,4.468750220836 h -231.8125 c -4.125,0 -7.6836,-1.488281320836 -10.6719,-4.468750220836 -2.9804,-2.9765626 -4.4687,-6.5351563 -4.4687,-10.6718753 0,-4.125 1.4883,-7.675782 4.4687,-10.656251 2.9883,-2.976562 6.5469,-4.46875 10.6719,-4.46875 h 51.5938 V -467.06244 h -138.2657 v 41.95312 c 0,4.125 -1.4922,7.6836 -4.4687,10.67188 -2.9805,2.98047 -6.5391,4.46875 -10.6719,4.46875 -4.125,0 -7.6797,-1.48828 -10.6562,-4.46875 -2.9805,-2.98828 -4.4688,-6.54688 -4.4688,-10.67188 v -57.09375 c 0,-4.125 1.4883,-7.67578 4.4688,-10.65625 2.9765,-2.97656 6.5312,-4.46875 10.6562,-4.46875 z m 254.5156,30.26563 h -70.8437 v 436.796891 h 70.8437 z m 0,0" style="fill:#ffffff;fill-opacity:1;fill-rule:nonzero;stroke:none" aria-label="FGT" transform="translate(194.49999,1231.0599)" data-index="5"></path>
    </g>
    <g id="g10">
      <path id="path10" d="M 35.765634,-496.64057 H 445.75003 c 4.125,0 7.67578,1.49219 10.65625,4.46875 2.97656,2.98047 4.46875,6.53125 4.46875,10.65625 v 62.59376 c 0,4.13671 -1.49219,7.69531 -4.46875,10.67187 -2.98047,2.98047 -6.53125,4.46875 -10.65625,4.46875 -4.13672,0 -7.69532,-1.48828 -10.67188,-4.46875 -2.98047,-2.97656 -4.46875,-6.53516 -4.46875,-10.67187 v -47.45313 H 218.06252 v 256.57813 h 99.04688 v -48.84375 c 0,-4.125 1.48828,-7.67578 4.46875,-10.65625 2.97656,-2.98828 6.53515,-4.48437 10.67187,-4.48437 4.125,0 7.67578,1.49609 10.65625,4.48437 2.97656,2.98047 4.46875,6.53125 4.46875,10.65625 v 126.56251 c 0,4.13672 -1.49219,7.69531 -4.46875,10.67187 -2.98047,2.98047 -6.53125,4.46875 -10.65625,4.46875 -4.13672,0 -7.69531,-1.48828 -10.67187,-4.46875 -2.98047,-2.97656 -4.46875,-6.53515 -4.46875,-10.67187 v -47.45313 h -99.04688 v 149.265631 h 50.89062 c 4.13282,0 7.69141,1.492188 10.67188,4.46875 2.97656,2.980469 4.46875,6.531251 4.46875,10.656251 0,4.136719 -1.49219,7.6953127 -4.46875,10.6718753 -2.98047,2.9804689 -6.53906,4.468750220836 -10.67188,4.468750220836 H 38.515635 c -4.125001,0 -7.679688,-1.488281320836 -10.656251,-4.468750220836 -2.980469,-2.9765626 -4.46875,-6.5351563 -4.46875,-10.6718753 0,-4.125 1.488281,-7.675782 4.46875,-10.656251 2.976563,-2.976562 6.53125,-4.46875 10.656251,-4.46875 H 85.984387 V -466.37494 H 35.765634 c -4.125,0 -7.679687,-1.48828 -10.65625,-4.46875 -2.980469,-2.98828 -4.46875,-6.54688 -4.46875,-10.67188 0,-4.125 1.488281,-7.67578 4.46875,-10.65625 2.976563,-2.97656 6.53125,-4.46875 10.65625,-4.46875 z m 152.031256,30.26563 h -71.54688 v 256.57813 h 71.54688 z m 0,286.84376 h -71.54688 v 149.265631 h 71.54688 z m 725.00394,12.375 h 136.89067 c 10.0937,0 15.1406,5.04688 15.1406,15.14063 0,4.125 -1.3828,7.67968 -4.1406,10.65625 -2.75,2.98047 -6.418,4.46875 -11,4.46875 h -50.90629 v 121.750002 c 0,4.136719 -1.375,7.6953127 -4.125,10.6718753 -2.75,2.9804689 -6.41797,4.468750220836 -11,4.468750220836 -4.13672,0 -7.69532,-1.488281320836 -10.67188,-4.468750220836 -2.98047,-2.9765626 -4.46875,-6.5351563 -4.46875,-10.6718753 v -45.390627 c -22.46875,19.26172 -47.57813,34.16797 -75.32813,44.718752 C 865.44926,-5.2694539 836.44536,7.7520836e-5 806.17582,7.7520836e-5 c -16.5,0 -32.77734,-1.718750120836 -48.82812,-5.156250220836 -16.05469,-3.4375001 -31.87501,-8.1406253 -47.46876,-14.1093753 -29.34375,-12.375001 -55.48437,-30.257814 -78.42187,-53.656253 -23.38672,-22.925782 -41.26563,-49.062499 -53.64063,-78.406249 -5.96875,-15.59375 -10.67188,-31.41407 -14.10938,-47.46876 -3.4375,-16.05078 -5.15625,-32.33203 -5.15625,-48.84375 0,-16.96875 1.71875,-33.47266 5.15625,-49.51562 3.4375,-16.05079 8.14063,-31.87501 14.10938,-47.46876 12.375,-29.8125 30.25391,-55.95312 53.64063,-78.42188 22.9375,-22.92578 49.07812,-40.8125 78.42187,-53.65625 15.13282,-6.41406 30.72657,-11.22656 46.78126,-14.4375 16.05078,-3.20703 32.55468,-4.8125 49.51562,-4.8125 30.26954,0 59.27344,5.27735 87.01563,15.82813 27.75,10.54297 52.85938,25.44531 75.32813,44.70312 v -46.09375 c 0,-4.58203 1.48828,-8.25 4.46875,-11 2.97656,-2.75 6.53516,-4.125 10.67188,-4.125 10.08203,0 15.125,5.04297 15.125,15.125 v 136.89063 c 0,4.125 -1.375,7.6836 -4.125,10.67188 -2.75,2.98047 -6.41797,4.46875 -11,4.46875 -4.13672,0 -7.69532,-1.48828 -10.67188,-4.46875 -2.98047,-2.98828 -4.46875,-6.54688 -4.46875,-10.67188 v -48.15625 c -20.63672,-22.92578 -45.0586,-40.80469 -73.26563,-53.64063 -28.19922,-12.84375 -57.89063,-19.26562 -89.07813,-19.26562 h -0.6875 c -18.80469,0 -36,4.82031 -51.59375,14.45312 -15.58594,9.625 -27.96484,22.35157 -37.14063,38.17188 -9.16797,15.8125 -13.75,33.35156 -13.75,52.60938 v 304.046885 c 32.10157,17.429688 66.49219,26.140626 103.17188,26.140626 31.1875,0 60.87891,-6.300781 89.07813,-18.906251 28.20703,-12.613281 52.62891,-30.617188 73.26563,-54.01563 v -33.70312 h -55.71875 c -4.125,0 -7.67969,-1.48828 -10.65625,-4.46875 -2.98047,-2.97657 -4.46875,-6.53125 -4.46875,-10.65625 0,-4.59375 1.48828,-8.26563 4.46875,-11.01563 2.97656,-2.75 6.53125,-4.125 10.65625,-4.125 z M 672.05082,-76.359301 V -360.45306 c 0,-27.05078 7.10937,-51.58204 21.32812,-73.59376 -14.21875,8.71094 -27.75,19.48438 -40.59375,32.32813 -42.64844,42.64844 -63.96875,94.00782 -63.96875,154.07813 0,28.89844 5.5,56.64844 16.5,83.25001 11.00781,26.59375 26.83203,49.98047 47.46875,70.156249 3.20703,3.210937 6.41406,6.304687 9.625,9.28125 3.21875,2.980469 6.42969,5.84375 9.64063,8.59375 z M 1121.2188,-497.32807 h 443 c 4.125,0 7.6758,1.49219 10.6563,4.46875 2.9765,2.98047 4.4687,6.53125 4.4687,10.65625 v 62.59376 c 0,4.13671 -1.4922,7.69531 -4.4687,10.67187 -2.9805,2.98047 -6.5313,4.46875 -10.6563,4.46875 -4.125,0 -7.6836,-1.48828 -10.6719,-4.46875 -2.9804,-2.97656 -4.4687,-6.53516 -4.4687,-10.67187 v -47.45313 h -143.0781 v 436.796891 h 48.8437 c 4.125,0 7.6758,1.492188 10.6563,4.46875 2.9883,2.980469 4.4843,6.531251 4.4843,10.656251 0,4.136719 -1.496,7.6953127 -4.4843,10.6718753 -2.9805,2.9804689 -6.5313,4.468750220836 -10.6563,4.468750220836 h -231.8125 c -4.125,0 -7.6836,-1.488281320836 -10.6719,-4.468750220836 -2.9804,-2.9765626 -4.4687,-6.5351563 -4.4687,-10.6718753 0,-4.125 1.4883,-7.675782 4.4687,-10.656251 2.9883,-2.976562 6.5469,-4.46875 10.6719,-4.46875 h 51.5938 V -467.06244 h -138.2657 v 41.95312 c 0,4.125 -1.4922,7.6836 -4.4687,10.67188 -2.9805,2.98047 -6.5391,4.46875 -10.6719,4.46875 -4.125,0 -7.6797,-1.48828 -10.6562,-4.46875 -2.9805,-2.98828 -4.4688,-6.54688 -4.4688,-10.67188 v -57.09375 c 0,-4.125 1.4883,-7.67578 4.4688,-10.65625 2.9765,-2.97656 6.5312,-4.46875 10.6562,-4.46875 z m 254.5156,30.26563 h -70.8437 v 436.796891 h 70.8437 z m 0,0" style="fill:#ffffff;fill-opacity:1;fill-rule:nonzero;stroke:none" aria-label="FGT" transform="translate(191.74999,1231.0599)" data-index="6"></path>
    </g>
    <g id="g11">
      <path id="path11" d="M 35.765634,-496.64057 H 445.75003 c 4.125,0 7.67578,1.49219 10.65625,4.46875 2.97656,2.98047 4.46875,6.53125 4.46875,10.65625 v 62.59376 c 0,4.13671 -1.49219,7.69531 -4.46875,10.67187 -2.98047,2.98047 -6.53125,4.46875 -10.65625,4.46875 -4.13672,0 -7.69532,-1.48828 -10.67188,-4.46875 -2.98047,-2.97656 -4.46875,-6.53516 -4.46875,-10.67187 v -47.45313 H 218.06252 v 256.57813 h 99.04688 v -48.84375 c 0,-4.125 1.48828,-7.67578 4.46875,-10.65625 2.97656,-2.98828 6.53515,-4.48437 10.67187,-4.48437 4.125,0 7.67578,1.49609 10.65625,4.48437 2.97656,2.98047 4.46875,6.53125 4.46875,10.65625 v 126.56251 c 0,4.13672 -1.49219,7.69531 -4.46875,10.67187 -2.98047,2.98047 -6.53125,4.46875 -10.65625,4.46875 -4.13672,0 -7.69531,-1.48828 -10.67187,-4.46875 -2.98047,-2.97656 -4.46875,-6.53515 -4.46875,-10.67187 v -47.45313 h -99.04688 v 149.265631 h 50.89062 c 4.13282,0 7.69141,1.492188 10.67188,4.46875 2.97656,2.980469 4.46875,6.531251 4.46875,10.656251 0,4.136719 -1.49219,7.6953127 -4.46875,10.6718753 -2.98047,2.9804689 -6.53906,4.468750220836 -10.67188,4.468750220836 H 38.515634 c -4.125,0 -7.679687,-1.488281320836 -10.65625,-4.468750220836 -2.980469,-2.9765626 -4.46875,-6.5351563 -4.46875,-10.6718753 0,-4.125 1.488281,-7.675782 4.46875,-10.656251 2.976563,-2.976562 6.53125,-4.46875 10.65625,-4.46875 H 85.984386 V -466.37494 H 35.765634 c -4.125,0 -7.679687,-1.48828 -10.65625,-4.46875 -2.980469,-2.98828 -4.46875,-6.54688 -4.46875,-10.67188 0,-4.125 1.488281,-7.67578 4.46875,-10.65625 2.976563,-2.97656 6.53125,-4.46875 10.65625,-4.46875 z m 152.031256,30.26563 h -71.54688 v 256.57813 h 71.54688 z m 0,286.84376 h -71.54688 v 149.265631 h 71.54688 z m 725.00394,12.375 h 136.89067 c 10.0937,0 15.1406,5.04688 15.1406,15.14063 0,4.125 -1.3828,7.67968 -4.1406,10.65625 -2.75,2.98047 -6.418,4.46875 -11,4.46875 h -50.90629 v 121.750002 c 0,4.136719 -1.375,7.6953127 -4.125,10.6718753 -2.75,2.9804689 -6.41797,4.468750220836 -11,4.468750220836 -4.13672,0 -7.69532,-1.488281320836 -10.67188,-4.468750220836 -2.98047,-2.9765626 -4.46875,-6.5351563 -4.46875,-10.6718753 v -45.390627 c -22.46875,19.26172 -47.57813,34.16797 -75.32813,44.718752 C 865.44926,-5.2694539 836.44536,7.7520836e-5 806.17582,7.7520836e-5 c -16.5,0 -32.77734,-1.718750120836 -48.82812,-5.156250220836 -16.05469,-3.4375001 -31.87501,-8.1406253 -47.46876,-14.1093753 -29.34375,-12.375001 -55.48437,-30.257814 -78.42187,-53.656253 -23.38672,-22.925782 -41.26563,-49.062499 -53.64063,-78.406249 -5.96875,-15.59375 -10.67188,-31.41407 -14.10938,-47.46876 -3.4375,-16.05078 -5.15625,-32.33203 -5.15625,-48.84375 0,-16.96875 1.71875,-33.47266 5.15625,-49.51562 3.4375,-16.05079 8.14063,-31.87501 14.10938,-47.46876 12.375,-29.8125 30.25391,-55.95312 53.64063,-78.42188 22.9375,-22.92578 49.07812,-40.8125 78.42187,-53.65625 15.13282,-6.41406 30.72657,-11.22656 46.78126,-14.4375 16.05078,-3.20703 32.55468,-4.8125 49.51562,-4.8125 30.26954,0 59.27344,5.27735 87.01563,15.82813 27.75,10.54297 52.85938,25.44531 75.32813,44.70312 v -46.09375 c 0,-4.58203 1.48828,-8.25 4.46875,-11 2.97656,-2.75 6.53516,-4.125 10.67188,-4.125 10.08203,0 15.125,5.04297 15.125,15.125 v 136.89063 c 0,4.125 -1.375,7.6836 -4.125,10.67188 -2.75,2.98047 -6.41797,4.46875 -11,4.46875 -4.13672,0 -7.69532,-1.48828 -10.67188,-4.46875 -2.98047,-2.98828 -4.46875,-6.54688 -4.46875,-10.67188 v -48.15625 c -20.63672,-22.92578 -45.0586,-40.80469 -73.26563,-53.64063 -28.19922,-12.84375 -57.89063,-19.26562 -89.07813,-19.26562 h -0.6875 c -18.80469,0 -36,4.82031 -51.59375,14.45312 -15.58594,9.625 -27.96484,22.35157 -37.14063,38.17188 -9.16797,15.8125 -13.75,33.35156 -13.75,52.60938 v 304.046885 c 32.10157,17.429688 66.49219,26.140626 103.17188,26.140626 31.1875,0 60.87891,-6.300781 89.07813,-18.906251 28.20703,-12.613281 52.62891,-30.617188 73.26563,-54.01563 v -33.70312 h -55.71875 c -4.125,0 -7.67969,-1.48828 -10.65625,-4.46875 -2.98047,-2.97657 -4.46875,-6.53125 -4.46875,-10.65625 0,-4.59375 1.48828,-8.26563 4.46875,-11.01563 2.97656,-2.75 6.53125,-4.125 10.65625,-4.125 z M 672.05082,-76.359301 V -360.45306 c 0,-27.05078 7.10937,-51.58204 21.32812,-73.59376 -14.21875,8.71094 -27.75,19.48438 -40.59375,32.32813 -42.64844,42.64844 -63.96875,94.00782 -63.96875,154.07813 0,28.89844 5.5,56.64844 16.5,83.25001 11.00781,26.59375 26.83203,49.98047 47.46875,70.156249 3.20703,3.210937 6.41406,6.304687 9.625,9.28125 3.21875,2.980469 6.42969,5.84375 9.64063,8.59375 z M 1121.2188,-497.32807 h 443 c 4.125,0 7.6758,1.49219 10.6563,4.46875 2.9765,2.98047 4.4687,6.53125 4.4687,10.65625 v 62.59376 c 0,4.13671 -1.4922,7.69531 -4.4687,10.67187 -2.9805,2.98047 -6.5313,4.46875 -10.6563,4.46875 -4.125,0 -7.6836,-1.48828 -10.6719,-4.46875 -2.9804,-2.97656 -4.4687,-6.53516 -4.4687,-10.67187 v -47.45313 h -143.0781 v 436.796891 h 48.8437 c 4.125,0 7.6758,1.492188 10.6563,4.46875 2.9883,2.980469 4.4843,6.531251 4.4843,10.656251 0,4.136719 -1.496,7.6953127 -4.4843,10.6718753 -2.9805,2.9804689 -6.5313,4.468750220836 -10.6563,4.468750220836 h -231.8125 c -4.125,0 -7.6836,-1.488281320836 -10.6719,-4.468750220836 -2.9804,-2.9765626 -4.4687,-6.5351563 -4.4687,-10.6718753 0,-4.125 1.4883,-7.675782 4.4687,-10.656251 2.9883,-2.976562 6.5469,-4.46875 10.6719,-4.46875 h 51.5938 V -467.06244 h -138.2657 v 41.95312 c 0,4.125 -1.4922,7.6836 -4.4687,10.67188 -2.9805,2.98047 -6.5391,4.46875 -10.6719,4.46875 -4.125,0 -7.6797,-1.48828 -10.6562,-4.46875 -2.9805,-2.98828 -4.4688,-6.54688 -4.4688,-10.67188 v -57.09375 c 0,-4.125 1.4883,-7.67578 4.4688,-10.65625 2.9765,-2.97656 6.5312,-4.46875 10.6562,-4.46875 z m 254.5156,30.26563 h -70.8437 v 436.796891 h 70.8437 z m 0,0" style="fill: rgb(255, 255, 255); fill-opacity: 1; fill-rule: nonzero; stroke: none; opacity: 1;" aria-label="FGT" transform="translate(188.99999,1231.0599)" data-index="7"></path>
    </g>
    <g id="g12">
      <g id="g13">
        <path id="path13" d="M 35.765635,-496.64057 H 445.75003 c 4.125,0 7.67578,1.49219 10.65625,4.46875 2.97656,2.98047 4.46875,6.53125 4.46875,10.65625 v 62.59376 c 0,4.13671 -1.49219,7.69531 -4.46875,10.67187 -2.98047,2.98047 -6.53125,4.46875 -10.65625,4.46875 -4.13672,0 -7.69532,-1.48828 -10.67188,-4.46875 -2.98047,-2.97656 -4.46875,-6.53516 -4.46875,-10.67187 v -47.45313 H 218.06252 v 256.57813 h 99.04688 v -48.84375 c 0,-4.125 1.48828,-7.67578 4.46875,-10.65625 2.97656,-2.98828 6.53515,-4.48437 10.67187,-4.48437 4.125,0 7.67578,1.49609 10.65625,4.48437 2.97657,2.98047 4.46875,6.53125 4.46875,10.65625 v 126.56251 c 0,4.13672 -1.49218,7.69531 -4.46875,10.67187 -2.98047,2.98047 -6.53125,4.46875 -10.65625,4.46875 -4.13672,0 -7.69531,-1.48828 -10.67187,-4.46875 -2.98047,-2.97656 -4.46875,-6.53515 -4.46875,-10.67187 v -47.45313 h -99.04688 v 149.265631 h 50.89062 c 4.13282,0 7.69141,1.492188 10.67188,4.46875 2.97656,2.980469 4.46875,6.531251 4.46875,10.656251 0,4.136719 -1.49219,7.6953127 -4.46875,10.6718753 -2.98047,2.9804689 -6.53906,4.468750220836 -10.67188,4.468750220836 H 38.515635 c -4.125,0 -7.679688,-1.488281320836 -10.65625,-4.468750220836 -2.980469,-2.9765626 -4.46875,-6.5351563 -4.46875,-10.6718753 0,-4.125 1.488281,-7.675782 4.46875,-10.656251 2.976562,-2.976562 6.53125,-4.46875 10.65625,-4.46875 H 85.984387 V -466.37494 H 35.765635 c -4.125,0 -7.679688,-1.48828 -10.65625,-4.46875 -2.980469,-2.98828 -4.468751,-6.54688 -4.468751,-10.67188 0,-4.125 1.488282,-7.67578 4.468751,-10.65625 2.976562,-2.97656 6.53125,-4.46875 10.65625,-4.46875 z m 152.031255,30.26563 h -71.54688 v 256.57813 h 71.54688 z m 0,286.84376 h -71.54688 v 149.265631 h 71.54688 z m 725.00394,12.375 h 136.89067 c 10.0937,0 15.1406,5.04688 15.1406,15.14063 0,4.125 -1.3828,7.67968 -4.1406,10.65625 -2.75,2.98047 -6.418,4.46875 -11,4.46875 h -50.90629 v 121.750002 c 0,4.136719 -1.375,7.6953127 -4.125,10.6718753 -2.75,2.9804689 -6.41797,4.468750220836 -11,4.468750220836 -4.13672,0 -7.69532,-1.488281320836 -10.67188,-4.468750220836 -2.98047,-2.9765626 -4.46875,-6.5351563 -4.46875,-10.6718753 v -45.390627 c -22.46875,19.26172 -47.57813,34.16797 -75.32813,44.718752 C 865.44926,-5.2694539 836.44536,7.7520836e-5 806.17582,7.7520836e-5 c -16.5,0 -32.77734,-1.718750120836 -48.82812,-5.156250220836 -16.05469,-3.4375001 -31.875,-8.1406253 -47.46876,-14.1093753 -29.34375,-12.375001 -55.48437,-30.257814 -78.42187,-53.656253 -23.38672,-22.925782 -41.26563,-49.062499 -53.64063,-78.406249 -5.96875,-15.59375 -10.67188,-31.41407 -14.10938,-47.46876 -3.4375,-16.05078 -5.15625,-32.33203 -5.15625,-48.84375 0,-16.96875 1.71875,-33.47266 5.15625,-49.51562 3.4375,-16.05079 8.14063,-31.87501 14.10938,-47.46876 12.375,-29.8125 30.25391,-55.95312 53.64063,-78.42188 22.9375,-22.92578 49.07812,-40.8125 78.42187,-53.65625 15.13282,-6.41406 30.72657,-11.22656 46.78126,-14.4375 16.05078,-3.20703 32.55469,-4.8125 49.51562,-4.8125 30.26954,0 59.27344,5.27735 87.01563,15.82813 27.75,10.54297 52.85938,25.44531 75.32813,44.70312 v -46.09375 c 0,-4.58203 1.48828,-8.25 4.46875,-11 2.97656,-2.75 6.53516,-4.125 10.67188,-4.125 10.08203,0 15.125,5.04297 15.125,15.125 v 136.89063 c 0,4.125 -1.375,7.6836 -4.125,10.67188 -2.75,2.98047 -6.41797,4.46875 -11,4.46875 -4.13672,0 -7.69532,-1.48828 -10.67188,-4.46875 -2.98047,-2.98828 -4.46875,-6.54688 -4.46875,-10.67188 v -48.15625 c -20.63672,-22.92578 -45.0586,-40.80469 -73.26563,-53.64063 -28.19922,-12.84375 -57.89063,-19.26562 -89.07813,-19.26562 h -0.6875 c -18.80468,0 -36,4.82031 -51.59375,14.45312 -15.58594,9.625 -27.96484,22.35157 -37.14063,38.17188 -9.16796,15.8125 -13.75,33.35156 -13.75,52.60938 v 304.046885 c 32.10157,17.429688 66.49219,26.140626 103.17188,26.140626 31.1875,0 60.87891,-6.300781 89.07813,-18.906251 28.20703,-12.613281 52.62891,-30.617188 73.26563,-54.01563 v -33.70312 h -55.71875 c -4.125,0 -7.67969,-1.48828 -10.65625,-4.46875 -2.98047,-2.97657 -4.46875,-6.53125 -4.46875,-10.65625 0,-4.59375 1.48828,-8.26563 4.46875,-11.01563 2.97656,-2.75 6.53125,-4.125 10.65625,-4.125 z M 672.05082,-76.359301 V -360.45306 c 0,-27.05078 7.10937,-51.58204 21.32812,-73.59376 -14.21875,8.71094 -27.75,19.48438 -40.59375,32.32813 -42.64844,42.64844 -63.96875,94.00782 -63.96875,154.07813 0,28.89844 5.5,56.64844 16.5,83.25001 11.00781,26.59375 26.83203,49.98047 47.46875,70.156249 3.20703,3.210937 6.41406,6.304687 9.625,9.28125 3.21875,2.980469 6.42969,5.84375 9.64063,8.59375 z M 1121.2188,-497.32807 h 443 c 4.125,0 7.6758,1.49219 10.6563,4.46875 2.9765,2.98047 4.4687,6.53125 4.4687,10.65625 v 62.59376 c 0,4.13671 -1.4922,7.69531 -4.4687,10.67187 -2.9805,2.98047 -6.5313,4.46875 -10.6563,4.46875 -4.125,0 -7.6836,-1.48828 -10.6719,-4.46875 -2.9804,-2.97656 -4.4687,-6.53516 -4.4687,-10.67187 v -47.45313 h -143.0781 v 436.796891 h 48.8437 c 4.125,0 7.6758,1.492188 10.6563,4.46875 2.9883,2.980469 4.4843,6.531251 4.4843,10.656251 0,4.136719 -1.496,7.6953127 -4.4843,10.6718753 -2.9805,2.9804689 -6.5313,4.468750220836 -10.6563,4.468750220836 h -231.8125 c -4.125,0 -7.6836,-1.488281320836 -10.6719,-4.468750220836 -2.9804,-2.9765626 -4.4687,-6.5351563 -4.4687,-10.6718753 0,-4.125 1.4883,-7.675782 4.4687,-10.656251 2.9883,-2.976562 6.5469,-4.46875 10.6719,-4.46875 h 51.5938 V -467.06244 h -138.2657 v 41.95312 c 0,4.125 -1.4922,7.6836 -4.4687,10.67188 -2.9805,2.98047 -6.5391,4.46875 -10.6719,4.46875 -4.125,0 -7.6797,-1.48828 -10.6562,-4.46875 -2.9805,-2.98828 -4.4688,-6.54688 -4.4688,-10.67188 v -57.09375 c 0,-4.125 1.4883,-7.67578 4.4688,-10.65625 2.9765,-2.97656 6.5312,-4.46875 10.6562,-4.46875 z m 254.5156,30.26563 h -70.8437 v 436.796891 h 70.8437 z m 0,0" style="fill: rgb(255, 255, 255); fill-opacity: 1; fill-rule: nonzero; opacity: 1;" aria-label="FGT" transform="translate(205.49999,1231.0599)" data-index="8"></path>
      </g>
    </g>
    <g id="g14">
      <g id="g15">
        <path id="path15" d="m 32.453179,-53.517115 c 4.519532,0 8.425782,0.757813 11.718751,2.265625 3.300781,1.5 6.035156,3.507813 8.203125,6.015626 2.175781,2.5 3.804688,5.359375 4.890625,8.578125 1.09375,3.21875 1.640625,6.5 1.640625,9.84375 0,3.417969 -0.546875,6.777344 -1.640625,10.078126 -1.085937,3.304687 -2.734375,6.273438 -4.953125,8.9062502 -2.210937,2.6250001 -4.945313,4.7343752 -8.203125,6.3281253 -3.25,1.5820313 -7.007813,2.37500009 -11.265626,2.37500009 -3.179687,0 -6.0625,-0.64843753 -8.65625,-1.93750009 -2.59375,-1.3007813 -4.640625,-2.8671876 -6.140625,-4.7031252 v 5.76562525 H 5.7656782 V -1.2514875 c 0.5820312,0 1.125,-0.25 1.625,-0.75 0.5000001,-0.5000001 0.9375001,-1.0820313 1.3125001,-1.7500001 0.3828125,-0.6757813 0.6601563,-1.4101563 0.828125,-2.2031251 0.1640625,-0.7890625 0.25,-1.5195313 0.25,-2.1875001 V -72.06399 c 0,-1.414063 -0.2148437,-2.750001 -0.640625,-4.000001 -0.4179688,-1.257812 -1.6250001,-1.929687 -3.6250001,-2.015625 v -1.25 l 12.5312508,-3.890625 v 35.843752 c 1.925781,-1.914063 4.203125,-3.414063 6.828125,-4.500001 2.632813,-1.09375 5.160156,-1.640625 7.578125,-1.640625 z m 1.265625,50.1250024 c 3,-0.1640625 5.582032,-0.8945313 7.750001,-2.1875001 2.175781,-1.2890625 3.992187,-2.9375001 5.453125,-4.9375003 1.46875,-2.007812 2.554687,-4.289063 3.265625,-6.84375 0.71875,-2.550782 1.078125,-5.160157 1.078125,-7.828125 0,-3.007813 -0.421875,-5.929688 -1.265625,-8.765626 -0.835938,-2.84375 -2.070313,-5.394531 -3.703125,-7.65625 -1.625,-2.257813 -3.652344,-4.078125 -6.078125,-5.453125 -2.417969,-1.375 -5.171876,-2.0625 -8.265626,-2.0625 -1.75,0 -3.464844,0.398437 -5.140625,1.1875 -1.667969,0.792968 -3.152344,1.839843 -4.453125,3.140625 -1.292969,1.292968 -2.335938,2.839844 -3.125,4.640625 -0.792969,1.792969 -1.1875,3.6875 -1.1875,5.6875 v 15.546876 c 0,2.417969 0.457031,4.589844 1.375,6.515625 0.914062,1.917969 2.125,3.5468752 3.625,4.8906252 1.507812,1.3359376 3.203125,2.3554689 5.078125,3.0625002 1.882813,0.7109375 3.75,1.0625 5.59375,1.0625 z M 90.105525,17.920388 c -1.167968,3.507813 -2.652343,5.890626 -4.453125,7.140626 -1.792969,1.257812 -3.648437,1.890625 -5.5625,1.890625 -1.261719,0 -2.371094,-0.171875 -3.328125,-0.515625 -0.960938,-0.335938 -1.796875,-0.730469 -2.515625,-1.1875 -0.710938,-0.460938 -1.273438,-0.898438 -1.6875,-1.3125 -0.417969,-0.417969 -0.667969,-0.75 -0.75,-1 l 4.140625,-10.156251 c 0.414062,1.507813 0.832031,2.640625 1.25,3.390625 0.414062,0.832032 1,1.582032 1.75,2.25 0.757812,0.664063 1.679688,1 2.765625,1 2,0 3.585938,-1.460937 4.765625,-4.375 L 92.621151,-0.37648747 72.43365,-46.001489 c -0.417969,-1 -1.105469,-2.144532 -2.0625,-3.437501 -0.960938,-1.300781 -2.277344,-1.953125 -3.953126,-1.953125 v -1.25 H 82.9649 v 1.25 c -0.335937,0 -0.75,0.296875 -1.25,0.890625 -0.5,0.585938 -0.75,1.335938 -0.75,2.250001 0,0.75 0.164063,1.417968 0.5,2 l 15.406251,35.468751 14.796879,-36.218751 c 0.25,-0.582032 0.375,-1.125 0.375,-1.625 0,-0.832032 -0.27344,-1.500001 -0.8125,-2.000001 -0.54297,-0.507812 -1.10547,-0.765625 -1.6875,-0.765625 v -1.25 h 12.15625 v 1.25 c -1.34375,0 -2.4961,0.570313 -3.45313,1.703125 -0.96094,1.125001 -1.73047,2.398438 -2.3125,3.812501 z m 72.820315,-60.406252 c 0,-1.675782 0.5625,-3.097657 1.6875,-4.265625 1.13281,-1.164063 2.53516,-1.75 4.20313,-1.75 1.66406,0 3.08203,0.585937 4.25,1.75 1.17578,1.167968 1.76562,2.589843 1.76562,4.265625 0,1.667969 -0.58984,3.070312 -1.76562,4.203125 -1.16797,1.125 -2.58594,1.6875 -4.25,1.6875 -1.66797,0 -3.07032,-0.5625 -4.20313,-1.6875 -1.125,-1.132813 -1.6875,-2.535156 -1.6875,-4.203125 z m 0,37.0937513 c 0,-1.6640625 0.5625,-3.0820314 1.6875,-4.2500002 1.13281,-1.1757811 2.53516,-1.7656251 4.20313,-1.7656251 1.66406,0 3.08203,0.589844 4.25,1.7656251 1.17578,1.1679688 1.76562,2.5859377 1.76562,4.2500002 0,1.6796876 -0.58984,3.0781252 -1.76562,4.2031252 -1.16797,1.12500005 -2.58594,1.68750007 -4.25,1.68750007 -1.66797,0 -3.07032,-0.56250002 -4.20313,-1.68750007 -1.125,-1.125 -1.6875,-2.5234376 -1.6875,-4.2031252 z m 99.13672,-78.5781283 c 6.51954,0 12.36719,1.152344 17.54688,3.453125 5.17578,2.292969 9.58203,5.382813 13.21875,9.265626 3.63281,3.886718 6.42969,8.402344 8.39063,13.546875 1.96875,5.136719 2.95312,10.500001 2.95312,16.093751 0,6.273438 -1.15234,12.039063 -3.45312,17.296876 -2.29297,5.261719 -5.44532,9.773437 -9.45313,13.53125 -4.01172,3.761719 -8.67188,6.7109379 -13.98438,8.8437505 -5.30468,2.12109381 -10.96093,3.1875001 -16.96875,3.1875001 -6.4375,0 -12.22656,-1.1679688 -17.35937,-3.5000001 -5.13672,-2.3437501 -9.48047,-5.4375003 -13.03125,-9.2812505 -3.55469,-3.84375 -6.29297,-8.269532 -8.21875,-13.28125 -1.91797,-5.007813 -2.875,-10.234376 -2.875,-15.671876 0,-5.34375 0.95703,-10.625001 2.875,-15.843751 1.92578,-5.226563 4.75,-9.890625 8.46875,-13.984375 3.71875,-4.093751 8.25,-7.390626 13.59375,-9.890626 5.34375,-2.507812 11.4414,-3.765625 18.29687,-3.765625 z m -0.125,80.8281284 c 5.59375,-0.25 10.5,-1.5195313 14.71875,-3.8125001 4.22657,-2.3007814 7.75782,-5.2265623 10.59375,-8.7812503 2.84376,-3.550782 4.95313,-7.457032 6.32813,-11.718751 1.38281,-4.257812 2.07813,-8.476562 2.07813,-12.65625 0,-4.59375 -0.83985,-9.226563 -2.51563,-13.906251 -1.66797,-4.675781 -4.04688,-8.914063 -7.14063,-12.71875 -3.09375,-3.800782 -6.79296,-6.890626 -11.09375,-9.265626 -4.30468,-2.382812 -9.125,-3.578125 -14.46875,-3.578125 -5.1875,0 -9.82812,1.152344 -13.92187,3.453125 -4.09375,2.292969 -7.58594,5.234376 -10.46875,8.828126 -2.875,3.59375 -5.07031,7.605469 -6.57813,12.03125 -1.5,4.429688 -2.25,8.773438 -2.25,13.031251 0,4.59375 0.875,9.210938 2.625,13.84375 1.75782,4.636719 4.1875,8.835938 7.28125,12.593751 3.09375,3.761719 6.75,6.8125002 10.96875,9.1562503 4.21875,2.3359376 8.83203,3.5000001 13.84375,3.5000001 z m 79.94923,-50.3750024 c 4.51953,0 8.42578,0.777344 11.71875,2.328125 3.30078,1.542969 6.05468,3.570313 8.26562,6.078126 2.21875,2.5 3.86719,5.382812 4.95313,8.640625 1.09375,3.261719 1.64062,6.605469 1.64062,10.03125 0,3.335938 -0.52734,6.632813 -1.57812,9.890626 -1.04297,3.261719 -2.63282,6.1875 -4.76563,8.7812502 -2.125,2.5859376 -4.77734,4.6718752 -7.95312,6.2656253 -3.16797,1.5820313 -6.92188,2.37500009 -11.26563,2.37500009 -2.59375,0 -5.25,-0.69140628 -7.96875,-2.06250009 -2.71094,-1.3828126 -5.15234,-3.1171876 -7.32812,-5.2031252 V 18.170388 c 0,0.664063 0.082,1.394532 0.25,2.1875 0.16406,0.800782 0.4375,1.535157 0.8125,2.203125 0.375,0.664063 0.78906,1.250001 1.25,1.750001 0.46875,0.5 1.03515,0.75 1.70312,0.75 v 1.25 h -16.29688 v -1.25 c 0.58204,0 1.125,-0.25 1.625,-0.75 0.5,-0.5 0.9375,-1.085938 1.3125,-1.750001 0.38282,-0.667968 0.66016,-1.402343 0.82813,-2.203125 0.16406,-0.792968 0.25,-1.523437 0.25,-2.1875 v -63.421877 c 0,-0.75 -0.0234,-1.476563 -0.0625,-2.1875 -0.043,-0.707032 -0.19531,-1.332032 -0.45313,-1.875001 -0.25,-0.539062 -0.64843,-1 -1.1875,-1.375 -0.54296,-0.382812 -1.3125,-0.617187 -2.3125,-0.703125 v -1.25 h 12.28126 v 5.515626 c 1.66406,-2 3.6914,-3.562501 6.07812,-4.687501 2.38281,-1.132812 5.11719,-1.703125 8.20313,-1.703125 z m 1.14062,50.1250024 c 2.91406,-0.082031 5.45703,-0.75 7.625,-2.0000001 2.17578,-1.25 3.97266,-2.8750001 5.39063,-4.8750003 1.42578,-2.007812 2.47265,-4.242188 3.14062,-6.703125 0.66406,-2.46875 1,-5.039063 1,-7.71875 0,-3.007813 -0.41797,-5.972657 -1.25,-8.890626 -0.83594,-2.925781 -2.04687,-5.539063 -3.64062,-7.84375 -1.58594,-2.300782 -3.52735,-4.179688 -5.82813,-5.640625 -2.29297,-1.457032 -4.90234,-2.187501 -7.82812,-2.187501 -1.75,0 -3.48438,0.335938 -5.20313,1.000001 -1.71094,0.667968 -3.21484,1.632812 -4.51562,2.890625 -1.29297,1.25 -2.33594,2.734375 -3.125,4.453125 -0.79297,1.710937 -1.1875,3.605469 -1.1875,5.6875 v 16.421876 c 0,2.25 0.45703,4.320312 1.375,6.203125 0.91406,1.875 2.10156,3.5078127 3.5625,4.8906252 1.46875,1.3750001 3.11718,2.4375001 4.95312,3.1875002 1.84375,0.75 3.6875,1.125 5.53125,1.125 z m 43.60938,-21.9218764 c 0.33203,2.917969 1.03906,5.695313 2.125,8.328126 1.09375,2.636719 2.53515,4.960938 4.32812,6.96875 1.80078,2.0000002 3.99219,3.605469 6.57813,4.8125003 2.59375,1.2109376 5.60156,1.8125001 9.03125,1.8125001 1.83203,0 3.76953,-0.2695313 5.8125,-0.8125 2.05078,-0.5390625 3.95312,-1.3125001 5.70312,-2.3125001 1.75782,-1.0000001 3.32813,-2.2265626 4.70313,-3.6875003 1.38281,-1.46875 2.32812,-3.125 2.82812,-4.96875 h 1.125 v 9.4062503 c -0.5,0 -1.0625,0.1679688 -1.6875,0.5 -0.625,0.3359375 -1.35546,0.7500001 -2.1875,1.2500001 -1.67968,1.0117188 -3.9375,2.0781251 -6.78125,3.20312512 -2.83593,1.12109379 -6.58984,1.68750007 -11.26562,1.68750007 -3.76172,0 -7.33594,-0.54296878 -10.71875,-1.62500007 -3.38672,-1.08203132 -6.375,-2.75390632 -8.96875,-5.01562522 -2.58594,-2.2578126 -4.65235,-5.1406253 -6.20313,-8.6406253 -1.54297,-3.507813 -2.3125,-7.691407 -2.3125,-12.546876 0,-3.082031 0.51953,-6.210937 1.5625,-9.390625 1.03907,-3.175781 2.625,-6.035156 4.75,-8.578125 2.13282,-2.550782 4.875,-4.617188 8.21875,-6.203126 3.34375,-1.59375 7.35157,-2.390625 12.03125,-2.390625 4.17578,0 7.83204,0.714844 10.96875,2.140625 3.13282,1.417969 5.72266,3.382813 7.76563,5.890626 2.05078,2.5 3.57812,5.464844 4.57812,8.890625 1,3.429688 1.5,7.1875 1.5,11.28125 z m 18.17187,-24.062501 c -2.92968,0 -5.46093,0.585938 -7.59375,1.750001 -2.125,1.167968 -3.9375,2.671875 -5.4375,4.515625 -1.5,1.835937 -2.67187,3.921875 -3.51562,6.265625 -0.83594,2.335938 -1.375,4.671875 -1.625,7.015625 h 35.71875 c -0.0859,-2.425781 -0.52344,-4.804687 -1.3125,-7.140625 -0.79297,-2.34375 -1.90234,-4.429688 -3.32813,-6.265625 -1.41796,-1.84375 -3.21484,-3.328125 -5.39062,-4.453125 -2.16797,-1.125 -4.67188,-1.687501 -7.51563,-1.687501 z m 86.09376,41.2343772 c 0,0.6679688 0.082,1.3984376 0.25,2.1875001 0.16406,0.7929688 0.4375,1.5273438 0.8125,2.2031251 0.38281,0.6679688 0.80468,1.25 1.26562,1.7500001 0.45703,0.5 1.01953,0.75 1.6875,0.75 v 1.25000005 H 478.74617 V -1.2514875 c 0.58203,0 1.125,-0.25 1.625,-0.75 0.50781,-0.5000001 0.95312,-1.0820313 1.32812,-1.7500001 0.375,-0.6757813 0.64453,-1.4101563 0.8125,-2.2031251 0.16406,-0.7890625 0.25,-1.5195313 0.25,-2.1875001 V -31.454614 c 0,-3.007812 -0.41797,-5.640625 -1.25,-7.890625 -0.83594,-2.257813 -1.96484,-4.140625 -3.39062,-5.640625 -1.41797,-1.507813 -3.02735,-2.617188 -4.82813,-3.328125 -1.79297,-0.707032 -3.60547,-1.062501 -5.4375,-1.062501 -1.84375,0 -3.66797,0.375001 -5.46875,1.125001 -1.79297,0.75 -3.38281,1.734375 -4.76562,2.953125 -1.375,1.210937 -2.5,2.632812 -3.375,4.265625 -0.875,1.625 -1.3125,3.3125 -1.3125,5.0625 v 27.8281262 c 0,0.6679688 0.082,1.3984376 0.25,2.1875001 0.16406,0.7929688 0.4375,1.5273438 0.8125,2.2031251 0.375,0.6679688 0.78906,1.25 1.25,1.7500001 0.46875,0.5 1.03515,0.75 1.70312,0.75 v 1.25000005 H 440.65242 V -1.2514875 c 0.58203,0 1.125,-0.25 1.625,-0.75 0.5,-0.5000001 0.9375,-1.0820313 1.3125,-1.7500001 0.38281,-0.6757813 0.66015,-1.4101563 0.82812,-2.2031251 0.16406,-0.7890625 0.25,-1.5195313 0.25,-2.1875001 V -42.735864 c 0,-1.425782 -0.21484,-2.785157 -0.64062,-4.078125 -0.41797,-1.289063 -1.625,-1.976563 -3.625,-2.0625 v -1.125001 l 12.53125,-4.015625 v 6.890626 c 0.58203,-0.664063 1.33203,-1.394532 2.25,-2.187501 0.92578,-0.789062 2.03515,-1.539062 3.32812,-2.25 1.28906,-0.71875 2.78906,-1.304687 4.5,-1.765625 1.71875,-0.457031 3.75,-0.6875 6.09375,-0.6875 3.92578,0 7.26563,0.671875 10.01563,2.015625 2.75781,1.335938 5.01562,3.070313 6.76562,5.203126 1.75781,2.125 3.03516,4.464844 3.82813,7.015625 0.78906,2.542969 1.1875,5.027344 1.1875,7.453125 z m 64.17578,6.8906253 h 0.625 c 2.00781,0 3.01563,-0.921875 3.01563,-2.7656251 0,-0.6640625 -0.125,-1.3750001 -0.375,-2.1250001 L 547.06258,-36.595239 h -21.93751 l -10.90625,29.9531263 c -0.25,0.6679688 -0.375,1.2929688 -0.375,1.8750001 0,1.0859375 0.28907,1.9453125 0.875,2.5781251 0.58204,0.625 1.21094,0.9375 1.89063,0.9375 h 0.625 v 1.25000005 H 503.31257 V -1.2514875 h 0.625 c 1.09375,0 2.16016,-0.6445313 3.20313,-1.9375001 1.03906,-1.3007813 1.89453,-2.8281251 2.5625,-4.5781252 l 28.70313,-76.4531282 28.07812,75.7031282 c 0.58203,1.6679688 1.39453,3.2968751 2.4375,4.8906252 1.05078,1.5859376 2.41016,2.3750001 4.07813,2.3750001 h 0.625 v 1.25000005 H 555.0782 Z M 526.37507,-40.860864 h 19.29688 l -9.64062,-26.187501 z m 67.9297,39.6093765 h 0.625 v 1.25000005 H 581.02351 V -1.2514875 h 0.625 c 0.58204,0 1.14454,-0.25 1.6875,-0.75 0.53907,-0.5000001 0.97657,-1.0820313 1.3125,-1.7500001 0.34375,-0.6757813 0.61719,-1.4101563 0.82813,-2.2031251 0.20703,-0.7890625 0.3125,-1.5195313 0.3125,-2.1875001 V -74.954616 c 0,-0.582031 -0.0625,-1.25 -0.1875,-2 -0.125,-0.75 -0.35938,-1.457031 -0.70313,-2.125 -0.33593,-0.664062 -0.79296,-1.226562 -1.375,-1.6875 -0.58593,-0.46875 -1.29296,-0.703125 -2.125,-0.703125 h -0.625 v -1.25 h 12.65626 l 45.5,71.687503 v -63.921878 c 0,-0.582031 -0.10547,-1.25 -0.3125,-2 -0.21094,-0.75 -0.50782,-1.457031 -0.89063,-2.125 -0.375,-0.664062 -0.8125,-1.226562 -1.3125,-1.6875 -0.5,-0.46875 -1.08594,-0.703125 -1.75,-0.703125 h -0.625 v -1.25 h 14.03125 v 1.25 h -0.625 c -0.66797,0 -1.25,0.234375 -1.75,0.703125 -0.5,0.460938 -0.94531,1.023438 -1.32812,1.6875 -0.375,0.667969 -0.64844,1.375 -0.8125,2.125 -0.16797,0.75 -0.25,1.417969 -0.25,2 v 74.95312855 h -7.76563 L 590.16414,-71.93899 v 63.7968772 c 0,0.6679688 0.082,1.3984376 0.25,2.1875001 0.17578,0.7929688 0.45313,1.5273438 0.82813,2.2031251 0.375,0.6679688 0.8125,1.25 1.3125,1.7500001 0.5,0.5 1.08203,0.75 1.75,0.75 z m 82.59375,0 h 0.625 v 1.25000005 H 659.85164 V -1.2514875 h 0.625 c 0.58203,0 1.125,-0.25 1.625,-0.75 0.5,-0.5000001 0.9375,-1.0820313 1.3125,-1.7500001 0.38282,-0.6757813 0.66016,-1.4101563 0.82813,-2.2031251 0.16406,-0.7890625 0.25,-1.5195313 0.25,-2.1875001 V -74.954616 c 0,-0.582031 -0.0859,-1.25 -0.25,-2 -0.16797,-0.75 -0.44531,-1.457031 -0.82813,-2.125 -0.375,-0.664062 -0.8125,-1.226562 -1.3125,-1.6875 -0.5,-0.46875 -1.04297,-0.703125 -1.625,-0.703125 h -0.625 v -1.25 h 21.8125 c 8.35157,0 14.80469,1.632813 19.35938,4.890625 4.55078,3.261719 6.82812,8.062501 6.82812,14.406251 0,3.179688 -0.52734,5.960938 -1.57812,8.34375 -1.04297,2.375 -2.4375,4.421875 -4.1875,6.140626 -1.75,1.710937 -3.82031,3.089843 -6.20313,4.140625 -2.38671,1.042968 -4.91406,1.8125 -7.57812,2.3125 l 9.01562,13.78125 c 2.17579,3.34375 4.39063,6.625001 6.64063,9.843751 2.25781,3.21875 4.47266,6.542969 6.64063,9.9687502 0.59375,0.8359375 1.24218,1.7109376 1.95312,2.6250001 0.70703,0.9179688 1.45703,1.7578126 2.25,2.5156251 0.78906,0.75 1.625,1.3554688 2.5,1.8125001 0.88281,0.4609375 1.78516,0.6875 2.70313,0.6875 v 1.25000005 h -5.39063 c -3.34375,0 -6.08594,-0.81250003 -8.21875,-2.43750015 -2.125,-1.6328125 -3.89844,-3.5351563 -5.3125,-5.7031252 -3.76172,-5.5195312 -7.5,-11.1171882 -11.21875,-16.7968752 -3.71875,-5.687501 -7.41797,-11.285157 -11.09375,-16.796876 -0.91797,-0.08203 -1.90235,-0.1875 -2.95313,-0.3125 -1.04297,-0.125 -2.02343,-0.269531 -2.9375,-0.4375 v 34.3437512 c 0,0.6679688 0.082,1.3984376 0.25,2.1875001 0.16407,0.7929688 0.4375,1.5273438 0.8125,2.2031251 0.375,0.6679688 0.78907,1.25 1.25,1.7500001 0.46875,0.5 1.03516,0.75 1.70313,0.75 z m -4.01563,-77.2031285 v 31.828127 h 0.625 c 0.66407,0.08594 1.72657,0.148437 3.1875,0.1875 1.46875,0.04297 3.28907,0.0625 5.46875,0.0625 1.75,0 3.60157,-0.269532 5.5625,-0.8125 1.96875,-0.539063 3.80469,-1.457032 5.51563,-2.750001 1.71875,-1.300781 3.14062,-2.992187 4.26562,-5.078125 1.13282,-2.09375 1.70313,-4.726562 1.70313,-7.90625 0,-3.164063 -0.60938,-5.75 -1.82813,-7.75 -1.21093,-2.007813 -2.88281,-3.597657 -5.01562,-4.765626 -2.125,-1.175781 -4.69531,-1.972656 -7.70313,-2.390625 -3.01171,-0.414062 -6.3125,-0.625 -9.90625,-0.625 z m 0,0" style="fill:#ffffff;fill-opacity:1;fill-rule:nonzero;stroke:none" aria-label="by : OpenANR" transform="translate(1078.1249,1459.7724)" data-index="9"></path>
      </g>
    </g>
  </g>
</svg>