<svg xmlns="http://www.w3.org/2000/svg" xmlns:xlink="http://www.w3.org/1999/xlink" viewBox="25.4 669.2 1957.8918577981651 612.5350000000001" id="svg1" version="1.1" style="max-height: 500px" width="1957.8918577981651" height="612.5350000000001">
  <defs id="defs1">
    
    <clipPath id="clipPath6" clipPathUnits="userSpaceOnUse">
      <path data-index="0" id="path6" transform="matrix(0.25952002,0,0,0.25952002,-13.75,-647.15089)" d="M 0,0 H 6250 V 3288 H 0 Z"/>
    </clipPath>
    <clipPath id="clipPath7" clipPathUnits="userSpaceOnUse">
      <path data-index="1" id="path7" transform="matrix(0.25952002,0,0,0.25952002,-11,-647.15089)" d="M 0,0 H 6250 V 3288 H 0 Z"/>
    </clipPath>
    <clipPath id="clipPath8" clipPathUnits="userSpaceOnUse">
      <path data-index="2" id="path8" transform="matrix(0.25952002,0,0,0.25952002,-8.2499997,-647.15089)" d="M 0,0 H 6250 V 3288 H 0 Z"/>
    </clipPath>
    <clipPath id="clipPath9" clipPathUnits="userSpaceOnUse">
      <path data-index="3" id="path9" transform="matrix(0.25952002,0,0,0.25952002,-5.4999999,-647.15089)" d="M 0,0 H 6250 V 3288 H 0 Z"/>
    </clipPath>
    <clipPath id="clipPath10" clipPathUnits="userSpaceOnUse">
      <path data-index="4" id="path10" transform="matrix(0.25952002,0,0,0.25952002,-2.75,-647.15089)" d="M 0,0 H 6250 V 3288 H 0 Z"/>
    </clipPath>
    <clipPath id="clipPath11" clipPathUnits="userSpaceOnUse">
      <path data-index="5" id="path11" transform="matrix(0.25952002,0,0,0.25952002,0,-647.15089)" d="M 0,0 H 6250 V 3288 H 0 Z"/>
    </clipPath>
    <clipPath id="clipPath12" clipPathUnits="userSpaceOnUse">
      <path data-index="6" id="path12" transform="matrix(0.25952002,0,0,0.25952002,-16.5,-647.15089)" d="M 0,0 H 6250 V 3288 H 0 Z"/>
    </clipPath>
  </defs>
  
    
  
  <g id="g1">
    <g id="g2"/>
    <g id="g3">
      
    </g>
    <g id="g4"/>
    <g id="g5">
      
    </g>
    <g id="g6">
      <g id="g19">
        <path data-index="9" id="path13" clip-path="url(#clipPath6)" transform="matrix(1.2330455,0,0,1.2330455,16.954376,1282.4464)" aria-label="FGT" style="fill:#ffffff;fill-opacity:1;fill-rule:nonzero;stroke:none" d="M 35.771692,-496.63593 H 445.73223 c 4.13103,0 7.68549,1.49211 10.66972,4.47317 2.98106,2.97473 4.47317,6.52602 4.47317,10.65705 v 62.59907 c 0,4.12469 -1.49211,7.67599 -4.47317,10.65705 -2.98423,2.98422 -6.53869,4.47317 -10.66972,4.47317 -4.1247,0 -7.67599,-1.48895 -10.65705,-4.47317 -2.98423,-2.98106 -4.47317,-6.53236 -4.47317,-10.65705 v -47.46885 H 218.05663 v 256.58015 h 99.04338 v -48.83741 c 0,-4.13103 1.48895,-7.6855 4.47318,-10.66972 2.98105,-2.98106 6.53868,-4.47317 10.66971,-4.47317 4.12153,0 7.67283,1.49211 10.65705,4.47317 2.98106,2.98422 4.47318,6.53869 4.47318,10.66972 v 126.5667 c 0,4.12469 -1.49212,7.67599 -4.47318,10.65704 -2.98422,2.98423 -6.53552,4.47318 -10.65705,4.47318 -4.13103,0 -7.68866,-1.48895 -10.66971,-4.47318 -2.98423,-2.98105 -4.47318,-6.53235 -4.47318,-10.65704 v -47.46885 h -99.04338 v 149.274699 h 50.90293 c 4.12152,0 7.67282,1.492113 10.65704,4.473172 2.98106,2.974723 4.47318,6.526016 4.47318,10.657048 0,4.124695 -1.49212,7.6759887 -4.47318,10.6570476 -2.98422,2.9842268 -6.53552,4.47317222001 -10.65704,4.47317222001 H 38.521489 c -4.131032,0 -7.688661,-1.48894542001 -10.66972,-4.47317222001 -2.974723,-2.9810589 -4.4605,-6.5323526 -4.4605,-10.6570476 0,-4.131032 1.485777,-7.682325 4.4605,-10.657048 2.981059,-2.981059 6.538688,-4.473172 10.66972,-4.473172 H 85.977665 V -466.37549 H 35.771692 c -4.131032,0 -7.688661,-1.48894 -10.66972,-4.47317 -2.984227,-2.98106 -4.473172,-6.53235 -4.473172,-10.65705 0,-4.13103 1.488945,-7.68232 4.473172,-10.65705 2.981059,-2.98106 6.538688,-4.47317 10.66972,-4.47317 z m 152.011828,30.26044 h -71.53274 v 256.58015 h 71.53274 z m 0,286.84059 h -71.53274 v 149.274699 h 71.53274 z m 725.02456,12.38042 h 136.88162 c 10.0868,0 15.1302,5.04341 15.1302,15.13022 0,4.13103 -1.3781,7.68866 -4.131,10.66972 -2.7467,2.98423 -6.412,4.47317 -10.9992,4.47317 h -50.90294 v 121.751389 c 0,4.124695 -1.37807,7.6759887 -4.13104,10.6570476 -2.74663,2.9842268 -6.41197,4.47317222001 -10.99918,4.47317222001 -4.13104,0 -7.68867,-1.48894542001 -10.66972,-4.47317222001 -2.98423,-2.9810589 -4.47318,-6.5323526 -4.47318,-10.6570476 v -45.403332 c -22.46407,19.261251 -47.57022,34.169714 -75.32163,44.71905 -27.74507,10.5430014 -56.74466,15.81450182001 -87.0051,15.81450182001 -16.51779,0 -32.80115,-1.71703922001 -48.85008,-5.15745352001 -16.0426,-3.4372464 -31.86343,-8.1385123 -47.45618,-14.1037983 -29.34806,-12.383591 -55.48698,-30.266776 -78.41357,-53.652723 -23.39228,-22.926592 -41.27863,-49.065504 -53.65272,-78.413574 -5.96529,-15.59274 -10.66655,-31.41674 -14.1038,-47.46884 -3.44041,-16.04893 -5.15745,-32.32913 -5.15745,-48.83741 0,-16.96131 1.71704,-33.4696 5.15745,-49.5217 3.43725,-16.04893 8.13851,-31.87293 14.1038,-47.46884 12.37409,-29.80426 30.26044,-55.94 53.65272,-78.41357 22.92659,-22.92659 49.06551,-40.80978 78.41357,-53.65273 15.13022,-6.4183 30.7198,-11.23361 46.7719,-14.44593 16.04893,-3.20916 32.56038,-4.81532 49.53436,-4.81532 30.26044,0 59.26003,5.27784 87.0051,15.82718 27.75141,10.543 52.85756,25.44512 75.32163,44.70637 v -46.08761 c 0,-4.58722 1.48895,-8.25256 4.47318,-10.99919 2.98105,-2.75296 6.53868,-4.13103 10.66972,-4.13103 10.08681,0 15.13022,5.04341 15.13022,15.13022 v 136.88161 c 0,4.13103 -1.37807,7.68866 -4.13104,10.66972 -2.74663,2.97472 -6.41197,4.4605 -10.99918,4.4605 -4.13104,0 -7.68867,-1.48578 -10.66972,-4.4605 -2.98423,-2.98106 -4.47318,-6.53869 -4.47318,-10.66972 v -48.15313 c -20.62981,-22.92659 -45.04852,-40.80978 -73.25611,-53.65273 -28.20126,-12.83977 -57.89147,-19.26125 -89.07062,-19.26125 h -0.69695 c -18.79873,0 -35.99447,4.81532 -51.58721,14.44594 -15.58641,9.63063 -27.96683,22.35953 -37.14127,38.18036 -9.17444,15.82401 -13.76166,33.36505 -13.76166,52.62631 v 304.036318 c 32.10103,17.430166 66.49567,26.142081 103.18709,26.142081 31.17915,0 60.86936,-6.304259 89.07062,-18.919111 28.20759,-12.611685 52.6263,-30.608917 73.25611,-53.994868 v -33.70719 h -55.70556 c -4.13104,0 -7.68866,-1.48894 -10.66972,-4.47317 -2.98423,-2.98106 -4.47318,-6.53869 -4.47318,-10.66972 0,-4.57771 1.48895,-8.24305 4.47318,-10.99919 2.98106,-2.75296 6.53868,-4.13103 10.66972,-4.13103 z M 672.04243,-76.347815 V -360.4386 c 0,-27.05763 7.10892,-51.59355 21.32677,-73.61093 -14.21785,8.71825 -27.74507,19.49885 -40.57535,32.33862 -42.65353,42.6472 -63.9803,94.00632 -63.9803,154.07735 0,28.89187 5.50276,56.64011 16.51145,83.24155 11.00553,26.5951 26.82953,49.97788 47.46885,70.151506 3.20915,3.212321 6.41831,6.307427 9.63063,9.288486 3.20915,2.984226 6.41513,5.851238 9.61795,8.604203 z M 1121.2256,-497.33288 h 442.9834 c 4.1311,0 7.6824,1.49211 10.6571,4.47317 2.981,2.98423 4.4732,6.53869 4.4732,10.66972 v 62.5864 c 0,4.13103 -1.4922,7.68866 -4.4732,10.66972 -2.9747,2.98422 -6.526,4.47317 -10.6571,4.47317 -4.1247,0 -7.676,-1.48895 -10.657,-4.47317 -2.9842,-2.98106 -4.4732,-6.53869 -4.4732,-10.66972 v -47.45618 h -143.0781 v 436.799569 h 48.8374 c 4.131,0 7.6823,1.492113 10.657,4.473172 2.9811,2.974723 4.4732,6.526016 4.4732,10.657048 0,4.124695 -1.4921,7.6759887 -4.4732,10.6570476 -2.9747,2.9842268 -6.526,4.47317222001 -10.657,4.47317222001 h -231.8067 c -4.131,0 -7.6886,-1.48894542001 -10.6697,-4.47317222001 -2.9747,-2.9810589 -4.4605,-6.5323526 -4.4605,-10.6570476 0,-4.131032 1.4858,-7.682325 4.4605,-10.657048 2.9811,-2.981059 6.5387,-4.473172 10.6697,-4.473172 h 51.5873 V -467.05977 h -138.2629 v 41.95658 c 0,4.13103 -1.4921,7.68866 -4.4732,10.66972 -2.9747,2.97472 -6.526,4.4605 -10.657,4.4605 -4.131,0 -7.6887,-1.48578 -10.6697,-4.4605 -2.9748,-2.98106 -4.4605,-6.53869 -4.4605,-10.66972 v -57.0868 c 0,-4.13103 1.4857,-7.68549 4.4605,-10.66972 2.981,-2.98106 6.5387,-4.47317 10.6697,-4.47317 z m 254.5146,30.27311 h -70.8484 v 436.799569 h 70.8484 z m 0,0"/>
        <path data-index="10" id="path14" clip-path="url(#clipPath7)" transform="matrix(1.2330455,0,0,1.2330455,13.563501,1282.4464)" aria-label="FGT" style="fill:#ffffff;fill-opacity:1;fill-rule:nonzero;stroke:none" d="M 35.771895,-496.63593 H 445.73243 c 4.13103,0 7.68549,1.49211 10.66972,4.47317 2.98106,2.97473 4.47317,6.52602 4.47317,10.65705 v 62.59907 c 0,4.12469 -1.49211,7.67599 -4.47317,10.65705 -2.98423,2.98422 -6.53869,4.47317 -10.66972,4.47317 -4.1247,0 -7.67599,-1.48895 -10.65705,-4.47317 -2.98422,-2.98106 -4.47317,-6.53236 -4.47317,-10.65705 v -47.46885 H 218.05683 v 256.58015 h 99.04339 v -48.83741 c 0,-4.13103 1.48894,-7.6855 4.47317,-10.66972 2.98106,-2.98106 6.53869,-4.47317 10.66972,-4.47317 4.12153,0 7.67282,1.49211 10.65705,4.47317 2.98105,2.98422 4.47317,6.53869 4.47317,10.66972 v 126.5667 c 0,4.12469 -1.49212,7.67599 -4.47317,10.65704 -2.98423,2.98423 -6.53552,4.47318 -10.65705,4.47318 -4.13103,0 -7.68866,-1.48895 -10.66972,-4.47318 -2.98423,-2.98105 -4.47317,-6.53235 -4.47317,-10.65704 v -47.46885 h -99.04339 v 149.274699 h 50.90293 c 4.12153,0 7.67282,1.492113 10.65705,4.473172 2.98106,2.974723 4.47317,6.526016 4.47317,10.657048 0,4.124695 -1.49211,7.6759887 -4.47317,10.6570476 -2.98423,2.9842268 -6.53552,4.47317222001 -10.65705,4.47317222001 H 38.521692 c -4.131032,0 -7.688661,-1.48894542001 -10.66972,-4.47317222001 -2.974723,-2.9810589 -4.4605,-6.5323526 -4.4605,-10.6570476 0,-4.131032 1.485777,-7.682325 4.4605,-10.657048 2.981059,-2.981059 6.538688,-4.473172 10.66972,-4.473172 H 85.977868 V -466.37549 H 35.771895 c -4.131032,0 -7.688661,-1.48894 -10.66972,-4.47317 -2.984227,-2.98106 -4.473172,-6.53235 -4.473172,-10.65705 0,-4.13103 1.488945,-7.68232 4.473172,-10.65705 2.981059,-2.98106 6.538688,-4.47317 10.66972,-4.47317 z m 152.011825,30.26044 h -71.53274 v 256.58015 h 71.53274 z m 0,286.84059 h -71.53274 v 149.274699 h 71.53274 z m 725.02456,12.38042 h 136.88162 c 10.0868,0 15.1302,5.04341 15.1302,15.13022 0,4.13103 -1.3781,7.68866 -4.131,10.66972 -2.7467,2.98423 -6.412,4.47317 -10.9992,4.47317 h -50.90294 v 121.751389 c 0,4.124695 -1.37807,7.6759887 -4.13103,10.6570476 -2.74663,2.9842268 -6.41197,4.47317222001 -10.99919,4.47317222001 -4.13103,0 -7.68866,-1.48894542001 -10.66972,-4.47317222001 -2.98423,-2.9810589 -4.47317,-6.5323526 -4.47317,-10.6570476 v -45.403332 c -22.46407,19.261251 -47.57023,34.169714 -75.32164,44.71905 -27.74507,10.5430014 -56.74466,15.81450182001 -87.0051,15.81450182001 -16.51779,0 -32.80115,-1.71703922001 -48.85008,-5.15745352001 -16.04259,-3.4372464 -31.86343,-8.1385123 -47.45617,-14.1037983 -29.34807,-12.383591 -55.48698,-30.266776 -78.41357,-53.652723 -23.39229,-22.926592 -41.27864,-49.065504 -53.65273,-78.413574 -5.96528,-15.59274 -10.66655,-31.41674 -14.1038,-47.46884 -3.44041,-16.04893 -5.15745,-32.32913 -5.15745,-48.83741 0,-16.96131 1.71704,-33.4696 5.15745,-49.5217 3.43725,-16.04893 8.13852,-31.87293 14.1038,-47.46884 12.37409,-29.80426 30.26044,-55.94 53.65273,-78.41357 22.92659,-22.92659 49.0655,-40.80978 78.41357,-53.65273 15.13022,-6.4183 30.71979,-11.23361 46.77189,-14.44593 16.04893,-3.20916 32.56039,-4.81532 49.53436,-4.81532 30.26044,0 59.26003,5.27784 87.0051,15.82718 27.75141,10.543 52.85757,25.44512 75.32164,44.70637 v -46.08761 c 0,-4.58722 1.48894,-8.25256 4.47317,-10.99919 2.98106,-2.75296 6.53869,-4.13103 10.66972,-4.13103 10.08681,0 15.13022,5.04341 15.13022,15.13022 v 136.88161 c 0,4.13103 -1.37807,7.68866 -4.13103,10.66972 -2.74663,2.97472 -6.41197,4.4605 -10.99919,4.4605 -4.13103,0 -7.68866,-1.48578 -10.66972,-4.4605 -2.98423,-2.98106 -4.47317,-6.53869 -4.47317,-10.66972 v -48.15313 c -20.62982,-22.92659 -45.04852,-40.80978 -73.25612,-53.65273 -28.20126,-12.83977 -57.89147,-19.26125 -89.07062,-19.26125 h -0.69695 c -18.79873,0 -35.99446,4.81532 -51.58721,14.44594 -15.5864,9.63063 -27.96683,22.35953 -37.14127,38.18036 -9.17443,15.82401 -13.76165,33.36505 -13.76165,52.62631 v 304.036318 c 32.10103,17.430166 66.49567,26.142081 103.18708,26.142081 31.17915,0 60.86936,-6.304259 89.07062,-18.919111 28.2076,-12.611685 52.6263,-30.608917 73.25612,-53.994868 v -33.70719 h -55.70557 c -4.13103,0 -7.68866,-1.48894 -10.66972,-4.47317 -2.98423,-2.98106 -4.47317,-6.53869 -4.47317,-10.66972 0,-4.57771 1.48894,-8.24305 4.47317,-10.99919 2.98106,-2.75296 6.53869,-4.13103 10.66972,-4.13103 z M 672.04263,-76.347815 V -360.4386 c 0,-27.05763 7.10893,-51.59355 21.32677,-73.61093 -14.21784,8.71825 -27.74507,19.49885 -40.57535,32.33862 -42.65353,42.6472 -63.9803,94.00632 -63.9803,154.07735 0,28.89187 5.50276,56.64011 16.51146,83.24155 11.00552,26.5951 26.82953,49.97788 47.46884,70.151506 3.20916,3.212321 6.41831,6.307427 9.63063,9.288486 3.20915,2.984226 6.41514,5.851238 9.61795,8.604203 z M 1121.2258,-497.33288 h 442.9834 c 4.1311,0 7.6824,1.49211 10.6571,4.47317 2.981,2.98423 4.4732,6.53869 4.4732,10.66972 v 62.5864 c 0,4.13103 -1.4922,7.68866 -4.4732,10.66972 -2.9747,2.98422 -6.526,4.47317 -10.6571,4.47317 -4.1247,0 -7.676,-1.48895 -10.657,-4.47317 -2.9842,-2.98106 -4.4732,-6.53869 -4.4732,-10.66972 v -47.45618 h -143.0781 v 436.799569 h 48.8374 c 4.131,0 7.6823,1.492113 10.657,4.473172 2.9811,2.974723 4.4732,6.526016 4.4732,10.657048 0,4.124695 -1.4921,7.6759887 -4.4732,10.6570476 -2.9747,2.9842268 -6.526,4.47317222001 -10.657,4.47317222001 h -231.8067 c -4.131,0 -7.6886,-1.48894542001 -10.6697,-4.47317222001 -2.9747,-2.9810589 -4.4605,-6.5323526 -4.4605,-10.6570476 0,-4.131032 1.4858,-7.682325 4.4605,-10.657048 2.9811,-2.981059 6.5387,-4.473172 10.6697,-4.473172 h 51.5873 V -467.05977 H 1136.356 v 41.95658 c 0,4.13103 -1.4921,7.68866 -4.4732,10.66972 -2.9747,2.97472 -6.526,4.4605 -10.657,4.4605 -4.131,0 -7.6887,-1.48578 -10.6697,-4.4605 -2.9747,-2.98106 -4.4605,-6.53869 -4.4605,-10.66972 v -57.0868 c 0,-4.13103 1.4858,-7.68549 4.4605,-10.66972 2.981,-2.98106 6.5387,-4.47317 10.6697,-4.47317 z m 254.5146,30.27311 h -70.8484 v 436.799569 h 70.8484 z m 0,0"/>
        <path data-index="11" id="path15" clip-path="url(#clipPath8)" transform="matrix(1.2330455,0,0,1.2330455,10.172625,1282.4464)" aria-label="FGT" style="fill:#ffffff;fill-opacity:1;fill-rule:nonzero;stroke:none" d="M 35.772098,-496.63593 H 445.73263 c 4.13103,0 7.6855,1.49211 10.66972,4.47317 2.98106,2.97473 4.47318,6.52602 4.47318,10.65705 v 62.59907 c 0,4.12469 -1.49212,7.67599 -4.47318,10.65705 -2.98422,2.98422 -6.53869,4.47317 -10.66972,4.47317 -4.12469,0 -7.67599,-1.48895 -10.65704,-4.47317 -2.98423,-2.98106 -4.47318,-6.53236 -4.47318,-10.65705 v -47.46885 H 218.05704 v 256.58015 h 99.04338 v -48.83741 c 0,-4.13103 1.48894,-7.6855 4.47317,-10.66972 2.98106,-2.98106 6.53869,-4.47317 10.66972,-4.47317 4.12153,0 7.67282,1.49211 10.65705,4.47317 2.98106,2.98422 4.47317,6.53869 4.47317,10.66972 v 126.5667 c 0,4.12469 -1.49211,7.67599 -4.47317,10.65704 -2.98423,2.98423 -6.53552,4.47318 -10.65705,4.47318 -4.13103,0 -7.68866,-1.48895 -10.66972,-4.47318 -2.98423,-2.98105 -4.47317,-6.53235 -4.47317,-10.65704 v -47.46885 h -99.04338 v 149.274699 h 50.90292 c 4.12153,0 7.67282,1.492113 10.65705,4.473172 2.98106,2.974723 4.47317,6.526016 4.47317,10.657048 0,4.124695 -1.49211,7.6759887 -4.47317,10.6570476 -2.98423,2.9842268 -6.53552,4.47317222001 -10.65705,4.47317222001 H 38.521895 c -4.131032,0 -7.688661,-1.48894542001 -10.66972,-4.47317222001 -2.974723,-2.9810589 -4.4605,-6.5323526 -4.4605,-10.6570476 0,-4.131032 1.485777,-7.682325 4.4605,-10.657048 2.981059,-2.981059 6.538688,-4.473172 10.66972,-4.473172 H 85.978071 V -466.37549 H 35.772098 c -4.131032,0 -7.688661,-1.48894 -10.66972,-4.47317 -2.984227,-2.98106 -4.473172,-6.53235 -4.473172,-10.65705 0,-4.13103 1.488945,-7.68232 4.473172,-10.65705 2.981059,-2.98106 6.538688,-4.47317 10.66972,-4.47317 z m 152.011822,30.26044 h -71.53274 v 256.58015 h 71.53274 z m 0,286.84059 h -71.53274 v 149.274699 h 71.53274 z m 725.02456,12.38042 h 136.88162 c 10.0868,0 15.1302,5.04341 15.1302,15.13022 0,4.13103 -1.3781,7.68866 -4.131,10.66972 -2.7467,2.98423 -6.412,4.47317 -10.9992,4.47317 h -50.90294 v 121.751389 c 0,4.124695 -1.37807,7.6759887 -4.13103,10.6570476 -2.74663,2.9842268 -6.41197,4.47317222001 -10.99919,4.47317222001 -4.13103,0 -7.68866,-1.48894542001 -10.66972,-4.47317222001 -2.98423,-2.9810589 -4.47317,-6.5323526 -4.47317,-10.6570476 v -45.403332 c -22.46407,19.261251 -47.57022,34.169714 -75.32163,44.71905 -27.74508,10.5430014 -56.74466,15.81450182001 -87.0051,15.81450182001 -16.51779,0 -32.80115,-1.71703922001 -48.85009,-5.15745352001 -16.04259,-3.4372464 -31.86343,-8.1385123 -47.45617,-14.1037983 -29.34807,-12.383591 -55.48698,-30.266776 -78.41357,-53.652723 -23.39228,-22.926592 -41.27864,-49.065504 -53.65272,-78.413574 -5.96529,-15.59274 -10.66656,-31.41674 -14.1038,-47.46884 -3.44042,-16.04893 -5.15746,-32.32913 -5.15746,-48.83741 0,-16.96131 1.71704,-33.4696 5.15746,-49.5217 3.43724,-16.04893 8.13851,-31.87293 14.1038,-47.46884 12.37408,-29.80426 30.26044,-55.94 53.65272,-78.41357 22.92659,-22.92659 49.0655,-40.80978 78.41357,-53.65273 15.13022,-6.4183 30.71979,-11.23361 46.77189,-14.44593 16.04893,-3.20916 32.56039,-4.81532 49.53437,-4.81532 30.26044,0 59.26002,5.27784 87.0051,15.82718 27.75141,10.543 52.85756,25.44512 75.32163,44.70637 v -46.08761 c 0,-4.58722 1.48894,-8.25256 4.47317,-10.99919 2.98106,-2.75296 6.53869,-4.13103 10.66972,-4.13103 10.08681,0 15.13022,5.04341 15.13022,15.13022 v 136.88161 c 0,4.13103 -1.37807,7.68866 -4.13103,10.66972 -2.74663,2.97472 -6.41197,4.4605 -10.99919,4.4605 -4.13103,0 -7.68866,-1.48578 -10.66972,-4.4605 -2.98423,-2.98106 -4.47317,-6.53869 -4.47317,-10.66972 v -48.15313 c -20.62982,-22.92659 -45.04852,-40.80978 -73.25612,-53.65273 -28.20126,-12.83977 -57.89146,-19.26125 -89.07061,-19.26125 h -0.69696 c -18.79872,0 -35.99446,4.81532 -51.5872,14.44594 -15.58641,9.63063 -27.96683,22.35953 -37.14127,38.18036 -9.17444,15.82401 -13.76166,33.36505 -13.76166,52.62631 v 304.036318 c 32.10103,17.430166 66.49567,26.142081 103.18709,26.142081 31.17915,0 60.86935,-6.304259 89.07061,-18.919111 28.2076,-12.611685 52.6263,-30.608917 73.25612,-53.994868 v -33.70719 h -55.70557 c -4.13103,0 -7.68866,-1.48894 -10.66972,-4.47317 -2.98422,-2.98106 -4.47317,-6.53869 -4.47317,-10.66972 0,-4.57771 1.48895,-8.24305 4.47317,-10.99919 2.98106,-2.75296 6.53869,-4.13103 10.66972,-4.13103 z M 672.04284,-76.347815 V -360.4386 c 0,-27.05763 7.10892,-51.59355 21.32676,-73.61093 -14.21784,8.71825 -27.74507,19.49885 -40.57534,32.33862 -42.65354,42.6472 -63.98031,94.00632 -63.98031,154.07735 0,28.89187 5.50277,56.64011 16.51146,83.24155 11.00552,26.5951 26.82953,49.97788 47.46885,70.151506 3.20915,3.212321 6.4183,6.307427 9.63062,9.288486 3.20915,2.984226 6.41514,5.851238 9.61796,8.604203 z M 1121.226,-497.33288 h 442.9834 c 4.1311,0 7.6824,1.49211 10.6571,4.47317 2.981,2.98423 4.4732,6.53869 4.4732,10.66972 v 62.5864 c 0,4.13103 -1.4922,7.68866 -4.4732,10.66972 -2.9747,2.98422 -6.526,4.47317 -10.6571,4.47317 -4.1247,0 -7.6759,-1.48895 -10.657,-4.47317 -2.9842,-2.98106 -4.4732,-6.53869 -4.4732,-10.66972 v -47.45618 h -143.0781 v 436.799569 h 48.8374 c 4.131,0 7.6823,1.492113 10.657,4.473172 2.9811,2.974723 4.4732,6.526016 4.4732,10.657048 0,4.124695 -1.4921,7.6759887 -4.4732,10.6570476 -2.9747,2.9842268 -6.526,4.47317222001 -10.657,4.47317222001 h -231.8067 c -4.131,0 -7.6886,-1.48894542001 -10.6697,-4.47317222001 -2.9747,-2.9810589 -4.4605,-6.5323526 -4.4605,-10.6570476 0,-4.131032 1.4858,-7.682325 4.4605,-10.657048 2.9811,-2.981059 6.5387,-4.473172 10.6697,-4.473172 h 51.5873 V -467.05977 h -138.2629 v 41.95658 c 0,4.13103 -1.4921,7.68866 -4.4732,10.66972 -2.9747,2.97472 -6.526,4.4605 -10.657,4.4605 -4.131,0 -7.6887,-1.48578 -10.6697,-4.4605 -2.9747,-2.98106 -4.4605,-6.53869 -4.4605,-10.66972 v -57.0868 c 0,-4.13103 1.4858,-7.68549 4.4605,-10.66972 2.981,-2.98106 6.5387,-4.47317 10.6697,-4.47317 z m 254.5146,30.27311 h -70.8484 v 436.799569 h 70.8484 z m 0,0"/>
        <path data-index="12" id="path16" clip-path="url(#clipPath9)" transform="matrix(1.2330455,0,0,1.2330455,6.7817501,1282.4464)" aria-label="FGT" style="fill:#ffffff;fill-opacity:1;fill-rule:nonzero;stroke:none" d="M 35.772301,-496.63593 H 445.73284 c 4.13103,0 7.68549,1.49211 10.66972,4.47317 2.98105,2.97473 4.47317,6.52602 4.47317,10.65705 v 62.59907 c 0,4.12469 -1.49212,7.67599 -4.47317,10.65705 -2.98423,2.98422 -6.53869,4.47317 -10.66972,4.47317 -4.1247,0 -7.67599,-1.48895 -10.65705,-4.47317 -2.98423,-2.98106 -4.47317,-6.53236 -4.47317,-10.65705 v -47.46885 H 218.05724 v 256.58015 h 99.04338 v -48.83741 c 0,-4.13103 1.48895,-7.6855 4.47317,-10.66972 2.98106,-2.98106 6.53869,-4.47317 10.66972,-4.47317 4.12153,0 7.67282,1.49211 10.65705,4.47317 2.98106,2.98422 4.47317,6.53869 4.47317,10.66972 v 126.5667 c 0,4.12469 -1.49211,7.67599 -4.47317,10.65704 -2.98423,2.98423 -6.53552,4.47318 -10.65705,4.47318 -4.13103,0 -7.68866,-1.48895 -10.66972,-4.47318 -2.98422,-2.98105 -4.47317,-6.53235 -4.47317,-10.65704 v -47.46885 h -99.04338 v 149.274699 h 50.90292 c 4.12153,0 7.67283,1.492113 10.65705,4.473172 2.98106,2.974723 4.47317,6.526016 4.47317,10.657048 0,4.124695 -1.49211,7.6759887 -4.47317,10.6570476 -2.98422,2.9842268 -6.53552,4.47317222001 -10.65705,4.47317222001 H 38.522098 c -4.131032,0 -7.688661,-1.48894542001 -10.66972,-4.47317222001 -2.974723,-2.9810589 -4.4605,-6.5323526 -4.4605,-10.6570476 0,-4.131032 1.485777,-7.682325 4.4605,-10.657048 2.981059,-2.981059 6.538688,-4.473172 10.66972,-4.473172 H 85.978274 V -466.37549 H 35.772301 c -4.131032,0 -7.688661,-1.48894 -10.66972,-4.47317 -2.984227,-2.98106 -4.473172,-6.53235 -4.473172,-10.65705 0,-4.13103 1.488945,-7.68232 4.473172,-10.65705 2.981059,-2.98106 6.538688,-4.47317 10.66972,-4.47317 z m 152.011829,30.26044 h -71.53274 v 256.58015 h 71.53274 z m 0,286.84059 h -71.53274 v 149.274699 h 71.53274 z m 725.02139,12.38042 h 136.88158 c 10.0868,0 15.1302,5.04341 15.1302,15.13022 0,4.13103 -1.378,7.68866 -4.131,10.66972 -2.7466,2.98423 -6.412,4.47317 -10.9992,4.47317 h -50.9029 v 121.751389 c 0,4.124695 -1.37807,7.6759887 -4.13104,10.6570476 -2.74662,2.9842268 -6.41196,4.47317222001 -10.99918,4.47317222001 -4.13104,0 -7.68866,-1.48894542001 -10.66972,-4.47317222001 -2.98423,-2.9810589 -4.47318,-6.5323526 -4.47318,-10.6570476 v -45.403332 c -22.46406,19.261251 -47.57022,34.169714 -75.32163,44.71905 -27.74507,10.5430014 -56.74466,15.81450182001 -87.0051,15.81450182001 -16.51779,0 -32.80115,-1.71703922001 -48.85008,-5.15745352001 -16.0426,-3.4372464 -31.86343,-8.1385123 -47.45618,-14.1037983 -29.34806,-12.383591 -55.48697,-30.266776 -78.41357,-53.652723 -23.39228,-22.926592 -41.27863,-49.065504 -53.65272,-78.413574 -5.96529,-15.59274 -10.66655,-31.41674 -14.1038,-47.46884 -3.44041,-16.04893 -5.15745,-32.32913 -5.15745,-48.83741 0,-16.96131 1.71704,-33.4696 5.15745,-49.5217 3.43725,-16.04893 8.13851,-31.87293 14.1038,-47.46884 12.37409,-29.80426 30.26044,-55.94 53.65272,-78.41357 22.9266,-22.92659 49.06551,-40.80978 78.41357,-53.65273 15.13022,-6.4183 30.7198,-11.23361 46.7719,-14.44593 16.04893,-3.20916 32.56038,-4.81532 49.53436,-4.81532 30.26044,0 59.26003,5.27784 87.0051,15.82718 27.75141,10.543 52.85757,25.44512 75.32163,44.70637 v -46.08761 c 0,-4.58722 1.48895,-8.25256 4.47318,-10.99919 2.98106,-2.75296 6.53868,-4.13103 10.66972,-4.13103 10.08681,0 15.13022,5.04341 15.13022,15.13022 v 136.88161 c 0,4.13103 -1.37807,7.68866 -4.13104,10.66972 -2.74662,2.97472 -6.41196,4.4605 -10.99918,4.4605 -4.13104,0 -7.68866,-1.48578 -10.66972,-4.4605 -2.98423,-2.98106 -4.47318,-6.53869 -4.47318,-10.66972 v -48.15313 c -20.62981,-22.92659 -45.04852,-40.80978 -73.25611,-53.65273 -28.20126,-12.83977 -57.89147,-19.26125 -89.07062,-19.26125 h -0.69695 c -18.79873,0 -35.99447,4.81532 -51.58721,14.44594 -15.58641,9.63063 -27.96683,22.35953 -37.14127,38.18036 -9.17444,15.82401 -13.76166,33.36505 -13.76166,52.62631 v 304.036318 c 32.10103,17.430166 66.49567,26.142081 103.18709,26.142081 31.17915,0 60.86936,-6.304259 89.07062,-18.919111 28.20759,-12.611685 52.6263,-30.608917 73.25611,-53.994868 v -33.70719 h -55.70556 c -4.13103,0 -7.68866,-1.48894 -10.66972,-4.47317 -2.98423,-2.98106 -4.47318,-6.53869 -4.47318,-10.66972 0,-4.57771 1.48895,-8.24305 4.47318,-10.99919 2.98106,-2.75296 6.53869,-4.13103 10.66972,-4.13103 z M 672.03987,-76.347815 V -360.4386 c 0,-27.05763 7.10892,-51.59355 21.32677,-73.61093 -14.21785,8.71825 -27.74507,19.49885 -40.57535,32.33862 -42.65353,42.6472 -63.9803,94.00632 -63.9803,154.07735 0,28.89187 5.50276,56.64011 16.51145,83.24155 11.00553,26.5951 26.82953,49.97788 47.46885,70.151506 3.20915,3.212321 6.41831,6.307427 9.63063,9.288486 3.20915,2.984226 6.41513,5.851238 9.61795,8.604203 z M 1121.2262,-497.33288 h 442.9834 c 4.1311,0 7.6824,1.49211 10.6571,4.47317 2.981,2.98423 4.4732,6.53869 4.4732,10.66972 v 62.5864 c 0,4.13103 -1.4922,7.68866 -4.4732,10.66972 -2.9747,2.98422 -6.526,4.47317 -10.6571,4.47317 -4.1247,0 -7.6759,-1.48895 -10.657,-4.47317 -2.9842,-2.98106 -4.4732,-6.53869 -4.4732,-10.66972 v -47.45618 h -143.0781 v 436.799569 h 48.8374 c 4.131,0 7.6823,1.492113 10.657,4.473172 2.9811,2.974723 4.4732,6.526016 4.4732,10.657048 0,4.124695 -1.4921,7.6759887 -4.4732,10.6570476 -2.9747,2.9842268 -6.526,4.47317222001 -10.657,4.47317222001 h -231.8066 c -4.1311,0 -7.6887,-1.48894542001 -10.6698,-4.47317222001 -2.9747,-2.9810589 -4.4605,-6.5323526 -4.4605,-10.6570476 0,-4.131032 1.4858,-7.682325 4.4605,-10.657048 2.9811,-2.981059 6.5387,-4.473172 10.6698,-4.473172 h 51.5872 V -467.05977 h -138.2629 v 41.95658 c 0,4.13103 -1.4921,7.68866 -4.4732,10.66972 -2.9747,2.97472 -6.526,4.4605 -10.657,4.4605 -4.131,0 -7.6887,-1.48578 -10.6697,-4.4605 -2.9747,-2.98106 -4.4605,-6.53869 -4.4605,-10.66972 v -57.0868 c 0,-4.13103 1.4858,-7.68549 4.4605,-10.66972 2.981,-2.98106 6.5387,-4.47317 10.6697,-4.47317 z m 254.5146,30.27311 h -70.8484 v 436.799569 h 70.8484 z m 0,0"/>
        <path data-index="13" id="path17" clip-path="url(#clipPath10)" transform="matrix(1.2330455,0,0,1.2330455,3.3908751,1282.4464)" aria-label="FGT" style="fill:#ffffff;fill-opacity:1;fill-rule:nonzero;stroke:none" d="M 35.772503,-496.63593 H 445.73304 c 4.13103,0 7.68549,1.49211 10.66972,4.47317 2.98106,2.97473 4.47317,6.52602 4.47317,10.65705 v 62.59907 c 0,4.12469 -1.49211,7.67599 -4.47317,10.65705 -2.98423,2.98422 -6.53869,4.47317 -10.66972,4.47317 -4.1247,0 -7.67599,-1.48895 -10.65705,-4.47317 -2.98423,-2.98106 -4.47317,-6.53236 -4.47317,-10.65705 v -47.46885 H 218.05744 v 256.58015 h 99.04338 v -48.83741 c 0,-4.13103 1.48895,-7.6855 4.47318,-10.66972 2.98106,-2.98106 6.53868,-4.47317 10.66972,-4.47317 4.12152,0 7.67282,1.49211 10.65704,4.47317 2.98106,2.98422 4.47318,6.53869 4.47318,10.66972 v 126.5667 c 0,4.12469 -1.49212,7.67599 -4.47318,10.65704 -2.98422,2.98423 -6.53552,4.47318 -10.65704,4.47318 -4.13104,0 -7.68866,-1.48895 -10.66972,-4.47318 -2.98423,-2.98105 -4.47318,-6.53235 -4.47318,-10.65704 v -47.46885 h -99.04338 v 149.274699 h 50.90293 c 4.12152,0 7.67282,1.492113 10.65704,4.473172 2.98106,2.974723 4.47318,6.526016 4.47318,10.657048 0,4.124695 -1.49212,7.6759887 -4.47318,10.6570476 -2.98422,2.9842268 -6.53552,4.47317222001 -10.65704,4.47317222001 H 38.5223 c -4.131031,0 -7.68866,-1.48894542001 -10.669719,-4.47317222001 -2.974723,-2.9810589 -4.460501,-6.5323526 -4.460501,-10.6570476 0,-4.131032 1.485778,-7.682325 4.460501,-10.657048 2.981059,-2.981059 6.538688,-4.473172 10.669719,-4.473172 H 85.978476 V -466.37549 H 35.772503 c -4.131031,0 -7.68866,-1.48894 -10.669719,-4.47317 -2.984227,-2.98106 -4.473173,-6.53235 -4.473173,-10.65705 0,-4.13103 1.488946,-7.68232 4.473173,-10.65705 2.981059,-2.98106 6.538688,-4.47317 10.669719,-4.47317 z m 152.011827,30.26044 h -71.53274 v 256.58015 h 71.53274 z m 0,286.84059 h -71.53274 v 149.274699 h 71.53274 z m 725.02139,12.38042 h 136.88158 c 10.0868,0 15.1302,5.04341 15.1302,15.13022 0,4.13103 -1.378,7.68866 -4.131,10.66972 -2.7466,2.98423 -6.412,4.47317 -10.9992,4.47317 h -50.9029 v 121.751389 c 0,4.124695 -1.37807,7.6759887 -4.13103,10.6570476 -2.74663,2.9842268 -6.41197,4.47317222001 -10.99919,4.47317222001 -4.13103,0 -7.68866,-1.48894542001 -10.66972,-4.47317222001 -2.98423,-2.9810589 -4.47317,-6.5323526 -4.47317,-10.6570476 v -45.403332 c -22.46407,19.261251 -47.57023,34.169714 -75.32163,44.71905 C 865.44458,-5.2712616 836.44499,2.3882001e-4 806.18455,2.3882001e-4 789.66676,2.3882001e-4 773.3834,-1.7168004 757.33447,-5.1572147 741.29188,-8.5944611 725.47104,-13.295727 709.8783,-19.261013 680.53023,-31.644604 654.39132,-49.527789 631.46473,-72.913736 608.07244,-95.840328 590.18609,-121.97924 577.812,-151.32731 c -5.96528,-15.59274 -10.66655,-31.41674 -14.10379,-47.46884 -3.44042,-16.04893 -5.15746,-32.32913 -5.15746,-48.83741 0,-16.96131 1.71704,-33.4696 5.15746,-49.5217 3.43724,-16.04893 8.13851,-31.87293 14.10379,-47.46884 12.37409,-29.80426 30.26044,-55.94 53.65273,-78.41357 22.92659,-22.92659 49.0655,-40.80978 78.41357,-53.65273 15.13022,-6.4183 30.71979,-11.23361 46.77189,-14.44593 16.04893,-3.20916 32.56039,-4.81532 49.53436,-4.81532 30.26044,0 59.26003,5.27784 87.00511,15.82718 27.7514,10.543 52.85756,25.44512 75.32163,44.70637 v -46.08761 c 0,-4.58722 1.48894,-8.25256 4.47317,-10.99919 2.98106,-2.75296 6.53869,-4.13103 10.66972,-4.13103 10.08681,0 15.13022,5.04341 15.13022,15.13022 v 136.88161 c 0,4.13103 -1.37807,7.68866 -4.13103,10.66972 -2.74663,2.97472 -6.41197,4.4605 -10.99919,4.4605 -4.13103,0 -7.68866,-1.48578 -10.66972,-4.4605 -2.98423,-2.98106 -4.47317,-6.53869 -4.47317,-10.66972 v -48.15313 c -20.62982,-22.92659 -45.04852,-40.80978 -73.25612,-53.65273 -28.20126,-12.83977 -57.89146,-19.26125 -89.07062,-19.26125 h -0.69695 c -18.79873,0 -35.99446,4.81532 -51.58721,14.44594 -15.5864,9.63063 -27.96683,22.35953 -37.14127,38.18036 -9.17443,15.82401 -13.76165,33.36505 -13.76165,52.62631 v 304.036318 c 32.10103,17.430166 66.49567,26.142081 103.18708,26.142081 31.17916,0 60.86936,-6.304259 89.07062,-18.919111 28.2076,-12.611685 52.6263,-30.608917 73.25612,-53.994868 v -33.70719 h -55.70557 c -4.13103,0 -7.68866,-1.48894 -10.66972,-4.47317 -2.98423,-2.98106 -4.47317,-6.53869 -4.47317,-10.66972 0,-4.57771 1.48894,-8.24305 4.47317,-10.99919 2.98106,-2.75296 6.53869,-4.13103 10.66972,-4.13103 z M 672.04007,-76.347815 V -360.4386 c 0,-27.05763 7.10893,-51.59355 21.32677,-73.61093 -14.21784,8.71825 -27.74507,19.49885 -40.57535,32.33862 -42.65353,42.6472 -63.9803,94.00632 -63.9803,154.07735 0,28.89187 5.50276,56.64011 16.51146,83.24155 11.00552,26.5951 26.82953,49.97788 47.46884,70.151506 3.20916,3.212321 6.41831,6.307427 9.63063,9.288486 3.20915,2.984226 6.41514,5.851238 9.61795,8.604203 z M 1121.2264,-497.33288 h 442.9834 c 4.1311,0 7.6824,1.49211 10.6571,4.47317 2.9811,2.98423 4.4732,6.53869 4.4732,10.66972 v 62.5864 c 0,4.13103 -1.4921,7.68866 -4.4732,10.66972 -2.9747,2.98422 -6.526,4.47317 -10.6571,4.47317 -4.1246,0 -7.6759,-1.48895 -10.657,-4.47317 -2.9842,-2.98106 -4.4732,-6.53869 -4.4732,-10.66972 v -47.45618 h -143.0781 v 436.799569 h 48.8374 c 4.131,0 7.6823,1.492113 10.657,4.473172 2.9811,2.974723 4.4732,6.526016 4.4732,10.657048 0,4.124695 -1.4921,7.6759887 -4.4732,10.6570476 -2.9747,2.9842268 -6.526,4.47317222001 -10.657,4.47317222001 h -231.8066 c -4.1311,0 -7.6887,-1.48894542001 -10.6698,-4.47317222001 -2.9747,-2.9810589 -4.4605,-6.5323526 -4.4605,-10.6570476 0,-4.131032 1.4858,-7.682325 4.4605,-10.657048 2.9811,-2.981059 6.5387,-4.473172 10.6698,-4.473172 h 51.5872 V -467.05977 h -138.2629 v 41.95658 c 0,4.13103 -1.4921,7.68866 -4.4732,10.66972 -2.9747,2.97472 -6.526,4.4605 -10.657,4.4605 -4.131,0 -7.6887,-1.48578 -10.6697,-4.4605 -2.9747,-2.98106 -4.4605,-6.53869 -4.4605,-10.66972 v -57.0868 c 0,-4.13103 1.4858,-7.68549 4.4605,-10.66972 2.981,-2.98106 6.5387,-4.47317 10.6697,-4.47317 z m 254.5146,30.27311 h -70.8484 v 436.799569 h 70.8484 z m 0,0"/>
        <path data-index="14" id="path18" clip-path="url(#clipPath11)" transform="matrix(1.2330455,0,0,1.2330455,0,1282.4464)" aria-label="FGT" style="fill:#ffffff;fill-opacity:1;fill-rule:nonzero;stroke:none" d="M 35.772706,-496.63593 H 445.73324 c 4.13103,0 7.68549,1.49211 10.66972,4.47317 2.98106,2.97473 4.47317,6.52602 4.47317,10.65705 v 62.59907 c 0,4.12469 -1.49211,7.67599 -4.47317,10.65705 -2.98423,2.98422 -6.53869,4.47317 -10.66972,4.47317 -4.12469,0 -7.67599,-1.48895 -10.65705,-4.47317 -2.98422,-2.98106 -4.47317,-6.53236 -4.47317,-10.65705 v -47.46885 H 218.05764 v 256.58015 h 99.04339 v -48.83741 c 0,-4.13103 1.48894,-7.6855 4.47317,-10.66972 2.98106,-2.98106 6.53869,-4.47317 10.66972,-4.47317 4.12153,0 7.67282,1.49211 10.65705,4.47317 2.98106,2.98422 4.47317,6.53869 4.47317,10.66972 v 126.5667 c 0,4.12469 -1.49211,7.67599 -4.47317,10.65704 -2.98423,2.98423 -6.53552,4.47318 -10.65705,4.47318 -4.13103,0 -7.68866,-1.48895 -10.66972,-4.47318 -2.98423,-2.98105 -4.47317,-6.53235 -4.47317,-10.65704 v -47.46885 h -99.04339 v 149.274699 h 50.90293 c 4.12153,0 7.67282,1.492113 10.65705,4.473172 2.98106,2.974723 4.47317,6.526016 4.47317,10.657048 0,4.124695 -1.49211,7.6759887 -4.47317,10.6570476 -2.98423,2.9842268 -6.53552,4.47317222001 -10.65705,4.47317222001 H 38.522503 c -4.131031,0 -7.688661,-1.48894542001 -10.669719,-4.47317222001 -2.974723,-2.9810589 -4.460501,-6.5323526 -4.460501,-10.6570476 0,-4.131032 1.485778,-7.682325 4.460501,-10.657048 2.981058,-2.981059 6.538688,-4.473172 10.669719,-4.473172 H 85.978679 V -466.37549 H 35.772706 c -4.131031,0 -7.688661,-1.48894 -10.669719,-4.47317 -2.984227,-2.98106 -4.473173,-6.53235 -4.473173,-10.65705 0,-4.13103 1.488946,-7.68232 4.473173,-10.65705 2.981058,-2.98106 6.538688,-4.47317 10.669719,-4.47317 z m 152.011824,30.26044 h -71.53274 v 256.58015 h 71.53274 z m 0,286.84059 h -71.53274 v 149.274699 h 71.53274 z m 725.02139,12.38042 h 136.88158 c 10.0868,0 15.1302,5.04341 15.1302,15.13022 0,4.13103 -1.378,7.68866 -4.131,10.66972 -2.7466,2.98423 -6.412,4.47317 -10.9992,4.47317 h -50.9029 v 121.751389 c 0,4.124695 -1.37806,7.6759887 -4.13103,10.6570476 -2.74663,2.9842268 -6.41197,4.47317222001 -10.99919,4.47317222001 -4.13103,0 -7.68866,-1.48894542001 -10.66972,-4.47317222001 -2.98422,-2.9810589 -4.47317,-6.5323526 -4.47317,-10.6570476 v -45.403332 c -22.46407,19.261251 -47.57022,34.169714 -75.32163,44.71905 -27.74507,10.5430014 -56.74466,15.81450182001 -87.0051,15.81450182001 -16.51779,0 -32.80115,-1.71703922001 -48.85009,-5.15745352001 -16.04259,-3.4372464 -31.86343,-8.1385123 -47.45617,-14.1037983 -29.34807,-12.383591 -55.48698,-30.266776 -78.41357,-53.652723 -23.39228,-22.926592 -41.27864,-49.065504 -53.65272,-78.413574 -5.96529,-15.59274 -10.66656,-31.41674 -14.1038,-47.46884 -3.44042,-16.04893 -5.15746,-32.32913 -5.15746,-48.83741 0,-16.96131 1.71704,-33.4696 5.15746,-49.5217 3.43724,-16.04893 8.13851,-31.87293 14.1038,-47.46884 12.37408,-29.80426 30.26044,-55.94 53.65272,-78.41357 22.92659,-22.92659 49.0655,-40.80978 78.41357,-53.65273 15.13022,-6.4183 30.71979,-11.23361 46.77189,-14.44593 16.04893,-3.20916 32.56039,-4.81532 49.53437,-4.81532 30.26044,0 59.26003,5.27784 87.0051,15.82718 27.75141,10.543 52.85756,25.44512 75.32163,44.70637 v -46.08761 c 0,-4.58722 1.48895,-8.25256 4.47317,-10.99919 2.98106,-2.75296 6.53869,-4.13103 10.66972,-4.13103 10.08681,0 15.13022,5.04341 15.13022,15.13022 v 136.88161 c 0,4.13103 -1.37806,7.68866 -4.13103,10.66972 -2.74663,2.97472 -6.41197,4.4605 -10.99919,4.4605 -4.13103,0 -7.68866,-1.48578 -10.66972,-4.4605 -2.98422,-2.98106 -4.47317,-6.53869 -4.47317,-10.66972 v -48.15313 c -20.62981,-22.92659 -45.04852,-40.80978 -73.25612,-53.65273 -28.20126,-12.83977 -57.89146,-19.26125 -89.07061,-19.26125 h -0.69696 c -18.79872,0 -35.99446,4.81532 -51.5872,14.44594 -15.58641,9.63063 -27.96683,22.35953 -37.14127,38.18036 -9.17444,15.82401 -13.76166,33.36505 -13.76166,52.62631 v 304.036318 c 32.10103,17.430166 66.49567,26.142081 103.18709,26.142081 31.17915,0 60.86935,-6.304259 89.07061,-18.919111 28.2076,-12.611685 52.62631,-30.608917 73.25612,-53.994868 v -33.70719 h -55.70557 c -4.13103,0 -7.68866,-1.48894 -10.66972,-4.47317 -2.98422,-2.98106 -4.47317,-6.53869 -4.47317,-10.66972 0,-4.57771 1.48895,-8.24305 4.47317,-10.99919 2.98106,-2.75296 6.53869,-4.13103 10.66972,-4.13103 z M 672.04028,-76.347815 V -360.4386 c 0,-27.05763 7.10892,-51.59355 21.32676,-73.61093 -14.21784,8.71825 -27.74507,19.49885 -40.57534,32.33862 -42.65354,42.6472 -63.98031,94.00632 -63.98031,154.07735 0,28.89187 5.50277,56.64011 16.51146,83.24155 11.00552,26.5951 26.82953,49.97788 47.46885,70.151506 3.20915,3.212321 6.4183,6.307427 9.63062,9.288486 3.20916,2.984226 6.41514,5.851238 9.61796,8.604203 z M 1121.2266,-497.33288 H 1564.21 c 4.1311,0 7.6824,1.49211 10.6571,4.47317 2.9811,2.98423 4.4732,6.53869 4.4732,10.66972 v 62.5864 c 0,4.13103 -1.4921,7.68866 -4.4732,10.66972 -2.9747,2.98422 -6.526,4.47317 -10.6571,4.47317 -4.1246,0 -7.6759,-1.48895 -10.657,-4.47317 -2.9842,-2.98106 -4.4732,-6.53869 -4.4732,-10.66972 v -47.45618 h -143.0781 v 436.799569 h 48.8374 c 4.131,0 7.6823,1.492113 10.657,4.473172 2.9811,2.974723 4.4732,6.526016 4.4732,10.657048 0,4.124695 -1.4921,7.6759887 -4.4732,10.6570476 -2.9747,2.9842268 -6.526,4.47317222001 -10.657,4.47317222001 h -231.8066 c -4.1311,0 -7.6887,-1.48894542001 -10.6698,-4.47317222001 -2.9747,-2.9810589 -4.4605,-6.5323526 -4.4605,-10.6570476 0,-4.131032 1.4858,-7.682325 4.4605,-10.657048 2.9811,-2.981059 6.5387,-4.473172 10.6698,-4.473172 h 51.5872 V -467.05977 h -138.2629 v 41.95658 c 0,4.13103 -1.4921,7.68866 -4.4731,10.66972 -2.9748,2.97472 -6.5261,4.4605 -10.6571,4.4605 -4.131,0 -7.6887,-1.48578 -10.6697,-4.4605 -2.9747,-2.98106 -4.4605,-6.53869 -4.4605,-10.66972 v -57.0868 c 0,-4.13103 1.4858,-7.68549 4.4605,-10.66972 2.981,-2.98106 6.5387,-4.47317 10.6697,-4.47317 z m 254.5146,30.27311 h -70.8484 v 436.799569 h 70.8484 z m 0,0"/>
        <path data-index="15" id="path19" clip-path="url(#clipPath12)" transform="matrix(1.2330455,0,0,1.2330455,20.345251,1282.4464)" aria-label="FGT" style="fill: rgb(255, 255, 255); fill-opacity: 1; fill-rule: nonzero; opacity: 1;" d="M 35.771489,-496.63593 H 445.73202 c 4.13104,0 7.6855,1.49211 10.66972,4.47317 2.98106,2.97473 4.47318,6.52602 4.47318,10.65705 v 62.59907 c 0,4.12469 -1.49212,7.67599 -4.47318,10.65705 -2.98422,2.98422 -6.53868,4.47317 -10.66972,4.47317 -4.12469,0 -7.67598,-1.48895 -10.65704,-4.47317 -2.98423,-2.98106 -4.47318,-6.53236 -4.47318,-10.65705 v -47.46885 H 218.05643 v 256.58015 h 99.04338 v -48.83741 c 0,-4.13103 1.48895,-7.6855 4.47317,-10.66972 2.98106,-2.98106 6.53869,-4.47317 10.66972,-4.47317 4.12153,0 7.67282,1.49211 10.65705,4.47317 2.98106,2.98422 4.47317,6.53869 4.47317,10.66972 v 126.5667 c 0,4.12469 -1.49211,7.67599 -4.47317,10.65704 -2.98423,2.98423 -6.53552,4.47318 -10.65705,4.47318 -4.13103,0 -7.68866,-1.48895 -10.66972,-4.47318 -2.98422,-2.98105 -4.47317,-6.53235 -4.47317,-10.65704 v -47.46885 h -99.04338 v 149.274699 h 50.90292 c 4.12153,0 7.67282,1.492113 10.65705,4.473172 2.98106,2.974723 4.47317,6.526016 4.47317,10.657048 0,4.124695 -1.49211,7.6759887 -4.47317,10.6570476 -2.98423,2.9842268 -6.53552,4.47317222001 -10.65705,4.47317222001 H 38.521286 c -4.131031,0 -7.688661,-1.48894542001 -10.669719,-4.47317222001 -2.974723,-2.9810589 -4.460501,-6.5323526 -4.460501,-10.6570476 0,-4.131032 1.485778,-7.682325 4.460501,-10.657048 2.981058,-2.981059 6.538688,-4.473172 10.669719,-4.473172 H 85.977462 V -466.37549 H 35.771489 c -4.131031,0 -7.688661,-1.48894 -10.66972,-4.47317 -2.984226,-2.98106 -4.473172,-6.53235 -4.473172,-10.65705 0,-4.13103 1.488946,-7.68232 4.473172,-10.65705 2.981059,-2.98106 6.538689,-4.47317 10.66972,-4.47317 z m 152.011821,30.26044 h -71.53274 v 256.58015 h 71.53274 z m 0,286.84059 h -71.53274 v 149.274699 h 71.53274 z m 725.02456,12.38042 h 136.88163 c 10.0868,0 15.1302,5.04341 15.1302,15.13022 0,4.13103 -1.3781,7.68866 -4.131,10.66972 -2.7467,2.98423 -6.412,4.47317 -10.9992,4.47317 h -50.90295 v 121.751389 c 0,4.124695 -1.37806,7.6759887 -4.13103,10.6570476 -2.74663,2.9842268 -6.41197,4.47317222001 -10.99919,4.47317222001 -4.13103,0 -7.68866,-1.48894542001 -10.66972,-4.47317222001 -2.98422,-2.9810589 -4.47317,-6.5323526 -4.47317,-10.6570476 v -45.403332 c -22.46407,19.261251 -47.57022,34.169714 -75.32163,44.71905 -27.74507,10.5430014 -56.74466,15.81450182001 -87.0051,15.81450182001 -16.51779,0 -32.80115,-1.71703922001 -48.85008,-5.15745352001 -16.0426,-3.4372464 -31.86344,-8.1385123 -47.45618,-14.1037983 -29.34807,-12.383591 -55.48698,-30.266776 -78.41357,-53.652723 -23.39228,-22.926592 -41.27864,-49.065504 -53.65272,-78.413574 -5.96529,-15.59274 -10.66655,-31.41674 -14.1038,-47.46884 -3.44042,-16.04893 -5.15745,-32.32913 -5.15745,-48.83741 0,-16.96131 1.71703,-33.4696 5.15745,-49.5217 3.43725,-16.04893 8.13851,-31.87293 14.1038,-47.46884 12.37408,-29.80426 30.26044,-55.94 53.65272,-78.41357 22.92659,-22.92659 49.0655,-40.80978 78.41357,-53.65273 15.13022,-6.4183 30.7198,-11.23361 46.77189,-14.44593 16.04894,-3.20916 32.56039,-4.81532 49.53437,-4.81532 30.26044,0 59.26003,5.27784 87.0051,15.82718 27.75141,10.543 52.85756,25.44512 75.32163,44.70637 v -46.08761 c 0,-4.58722 1.48895,-8.25256 4.47317,-10.99919 2.98106,-2.75296 6.53869,-4.13103 10.66972,-4.13103 10.08682,0 15.13022,5.04341 15.13022,15.13022 v 136.88161 c 0,4.13103 -1.37806,7.68866 -4.13103,10.66972 -2.74663,2.97472 -6.41197,4.4605 -10.99919,4.4605 -4.13103,0 -7.68866,-1.48578 -10.66972,-4.4605 -2.98422,-2.98106 -4.47317,-6.53869 -4.47317,-10.66972 v -48.15313 c -20.62981,-22.92659 -45.04852,-40.80978 -73.25612,-53.65273 -28.20126,-12.83977 -57.89146,-19.26125 -89.07061,-19.26125 h -0.69696 c -18.79872,0 -35.99446,4.81532 -51.5872,14.44594 -15.58641,9.63063 -27.96683,22.35953 -37.14127,38.18036 -9.17444,15.82401 -13.76166,33.36505 -13.76166,52.62631 v 304.036318 c 32.10103,17.430166 66.49567,26.142081 103.18709,26.142081 31.17915,0 60.86935,-6.304259 89.07061,-18.919111 28.2076,-12.611685 52.62631,-30.608917 73.25612,-53.994868 v -33.70719 h -55.70557 c -4.13103,0 -7.68866,-1.48894 -10.66972,-4.47317 -2.98422,-2.98106 -4.47317,-6.53869 -4.47317,-10.66972 0,-4.57771 1.48895,-8.24305 4.47317,-10.99919 2.98106,-2.75296 6.53869,-4.13103 10.66972,-4.13103 z M 672.04223,-76.347815 V -360.4386 c 0,-27.05763 7.10892,-51.59355 21.32676,-73.61093 -14.21784,8.71825 -27.74507,19.49885 -40.57534,32.33862 -42.65354,42.6472 -63.9803,94.00632 -63.9803,154.07735 0,28.89187 5.50276,56.64011 16.51145,83.24155 11.00552,26.5951 26.82953,49.97788 47.46885,70.151506 3.20915,3.212321 6.4183,6.307427 9.63062,9.288486 3.20916,2.984226 6.41514,5.851238 9.61796,8.604203 z M 1121.2254,-497.33288 h 442.9834 c 4.1311,0 7.6824,1.49211 10.6571,4.47317 2.981,2.98423 4.4732,6.53869 4.4732,10.66972 v 62.5864 c 0,4.13103 -1.4922,7.68866 -4.4732,10.66972 -2.9747,2.98422 -6.526,4.47317 -10.6571,4.47317 -4.1247,0 -7.676,-1.48895 -10.657,-4.47317 -2.9842,-2.98106 -4.4732,-6.53869 -4.4732,-10.66972 v -47.45618 h -143.0781 v 436.799569 h 48.8374 c 4.131,0 7.6823,1.492113 10.657,4.473172 2.9811,2.974723 4.4732,6.526016 4.4732,10.657048 0,4.124695 -1.4921,7.6759887 -4.4732,10.6570476 -2.9747,2.9842268 -6.526,4.47317222001 -10.657,4.47317222001 h -231.8067 c -4.131,0 -7.6886,-1.48894542001 -10.6697,-4.47317222001 -2.9747,-2.9810589 -4.4605,-6.5323526 -4.4605,-10.6570476 0,-4.131032 1.4858,-7.682325 4.4605,-10.657048 2.9811,-2.981059 6.5387,-4.473172 10.6697,-4.473172 h 51.5872 V -467.05977 h -138.2628 v 41.95658 c 0,4.13103 -1.4921,7.68866 -4.4732,10.66972 -2.9747,2.97472 -6.526,4.4605 -10.657,4.4605 -4.131,0 -7.6887,-1.48578 -10.6697,-4.4605 -2.9748,-2.98106 -4.4605,-6.53869 -4.4605,-10.66972 v -57.0868 c 0,-4.13103 1.4857,-7.68549 4.4605,-10.66972 2.981,-2.98106 6.5387,-4.47317 10.6697,-4.47317 z m 254.5146,30.27311 h -70.8484 v 436.799569 h 70.8484 z m 0,0"/>
      </g>
    </g>
  </g>
</svg>